<svg width="733" height="105" viewBox="0 0 733 105" fill="none" xmlns="http://www.w3.org/2000/svg">
<g opacity="0.5">
<path d="M233.148 57.7993V61.0583H251.615V57.7993H233.148Z" fill="#47E6B1"/>
<path d="M244.011 50.1953H240.752V68.6623H244.011V50.1953Z" fill="#47E6B1"/>
</g>
<path opacity="0.5" d="M123.125 6.53741C123.125 2.93762 120.207 0.0194702 116.607 0.0194702C113.007 0.0194702 110.089 2.93762 110.089 6.53741C110.089 10.1372 113.007 13.0554 116.607 13.0554C120.207 13.0554 123.125 10.1372 123.125 6.53741Z" fill="#F55F44"/>
<path opacity="0.5" d="M8.38893 91.1412C7.57908 93.0001 5.50441 93.9565 3.56495 93.3652C3.42122 93.3189 3.27242 93.2897 3.12184 93.2782C2.23703 93.2193 1.41902 93.75 1.11232 94.5821C0.805618 95.4141 1.08356 96.3488 1.79494 96.8782C1.91684 96.967 2.04856 97.0412 2.18776 97.0992C4.04661 97.9091 5.00322 99.9838 4.41188 101.923C4.36552 102.067 4.3364 102.216 4.32496 102.366C4.26603 103.251 4.79664 104.069 5.62868 104.376C6.46073 104.682 7.39538 104.405 7.92482 103.693C8.01371 103.571 8.08784 103.44 8.14577 103.3C8.95562 101.441 11.0305 100.485 12.97 101.076C13.1137 101.123 13.2623 101.152 13.4129 101.163C14.2977 101.222 15.1157 100.691 15.4224 99.8594C15.7291 99.0274 15.4511 98.0927 14.7398 97.5633C14.6179 97.474 14.4862 97.3995 14.3469 97.3412C12.4881 96.5314 11.5315 94.4567 12.1228 92.5172C12.1691 92.3735 12.1985 92.2248 12.21 92.0742C12.2689 91.1894 11.7381 90.3714 10.906 90.0647C10.074 89.758 9.13932 90.0358 8.60988 90.7472C8.52097 90.8694 8.44684 91.0016 8.38893 91.1412Z" fill="#4D8AF0"/>
<path opacity="0.5" d="M725.713 43.1412C724.903 45 722.829 45.9565 720.889 45.3652C720.745 45.3189 720.597 45.2896 720.446 45.2782C719.561 45.2192 718.743 45.75 718.437 46.582C718.13 47.414 718.408 48.3488 719.119 48.8783C719.241 48.9671 719.373 49.0412 719.512 49.0992C721.371 49.9091 722.327 51.9837 721.736 53.9232C721.69 54.0669 721.661 54.2156 721.649 54.3662C721.59 55.251 722.121 56.069 722.953 56.3757C723.785 56.6824 724.72 56.4046 725.249 55.6932C725.338 55.5714 725.412 55.4395 725.47 55.3003C726.28 53.4414 728.355 52.4849 730.294 53.0763C730.438 53.1225 730.587 53.1517 730.737 53.1632C731.622 53.2221 732.44 52.6914 732.747 51.8593C733.053 51.0273 732.775 50.0926 732.064 49.5632C731.942 49.474 731.81 49.3994 731.671 49.3412C729.812 48.5313 728.856 46.4566 729.447 44.5172C729.493 44.3734 729.523 44.2248 729.534 44.0742C729.593 43.1894 729.062 42.3714 728.23 42.0647C727.398 41.758 726.464 42.0358 725.934 42.7472C725.845 42.8693 725.771 43.0016 725.713 43.1412Z" fill="#4D8AF0"/>
<path opacity="0.5" d="M432.713 14.1412C431.903 16 429.829 16.9565 427.889 16.3652C427.745 16.3189 427.597 16.2897 427.446 16.2782C426.561 16.2193 425.743 16.75 425.437 17.5821C425.13 18.4141 425.408 19.3488 426.119 19.8782C426.241 19.967 426.373 20.0412 426.512 20.0992C428.371 20.9091 429.327 22.9837 428.736 24.9232C428.69 25.0669 428.661 25.2156 428.649 25.3662C428.59 26.251 429.121 27.069 429.953 27.3757C430.785 27.6824 431.72 27.4046 432.249 26.6932C432.338 26.5714 432.412 26.4394 432.47 26.3002C433.28 24.4413 435.355 23.4849 437.294 24.0762C437.438 24.1225 437.587 24.1517 437.737 24.1632C438.622 24.2222 439.44 23.6914 439.747 22.8593C440.053 22.0273 439.775 21.0926 439.064 20.5632C438.942 20.474 438.81 20.3995 438.671 20.3412C436.812 19.5314 435.856 17.4566 436.447 15.5172C436.493 15.3734 436.523 15.2248 436.534 15.0742C436.593 14.1894 436.062 13.3714 435.23 13.0647C434.398 12.758 433.464 13.0358 432.934 13.7472C432.845 13.8694 432.771 14.0016 432.713 14.1412Z" fill="#4D8AF0"/>
</svg>
