<svg width="918" height="284" viewBox="0 0 918 284" fill="none" xmlns="http://www.w3.org/2000/svg">
<g opacity="0.5">
<path d="M11.6421 214.845H8.38306V233.312H11.6421V214.845Z" fill="#47E6B1"/>
<path d="M19.2461 225.708V222.449H0.779095V225.708H19.2461Z" fill="#47E6B1"/>
</g>
<path opacity="0.5" d="M415.905 214.822C419.505 214.822 422.423 211.904 422.423 208.304C422.423 204.704 419.505 201.786 415.905 201.786C412.305 201.786 409.387 204.704 409.387 208.304C409.387 211.904 412.305 214.822 415.905 214.822Z" fill="#F55F44"/>
<path opacity="0.5" d="M153.3 276.387C151.441 275.578 150.485 273.503 151.076 271.563C151.122 271.42 151.151 271.271 151.163 271.12C151.222 270.236 150.691 269.417 149.859 269.111C149.027 268.804 148.092 269.082 147.563 269.793C147.474 269.915 147.4 270.047 147.342 270.186C146.532 272.045 144.457 273.002 142.518 272.41C142.374 272.364 142.226 272.335 142.075 272.323C141.19 272.265 140.372 272.795 140.065 273.627C139.759 274.459 140.037 275.394 140.748 275.923C140.87 276.012 141.002 276.086 141.141 276.144C143 276.954 143.956 279.029 143.365 280.969C143.319 281.112 143.289 281.261 143.278 281.411C143.219 282.296 143.75 283.114 144.582 283.421C145.414 283.727 146.349 283.45 146.878 282.739C146.967 282.617 147.042 282.485 147.1 282.345C147.91 280.487 149.984 279.53 151.924 280.121C152.068 280.168 152.216 280.197 152.367 280.208C153.252 280.267 154.07 279.737 154.376 278.905C154.683 278.073 154.405 277.138 153.694 276.608C153.572 276.519 153.44 276.445 153.3 276.387Z" fill="#4D8AF0"/>
<g opacity="0.5">
<path d="M685.709 46.7058V43.4468H667.242V46.7058H685.709Z" fill="#47E6B1"/>
<path d="M674.846 54.3098H678.105V35.8428H674.846V54.3098Z" fill="#47E6B1"/>
</g>
<path opacity="0.5" d="M795.734 97.9692C795.734 101.569 798.652 104.487 802.252 104.487C805.852 104.487 808.77 101.569 808.77 97.9692C808.77 94.3694 805.852 91.4512 802.252 91.4512C798.652 91.4512 795.734 94.3694 795.734 97.9692Z" fill="#F55F44"/>
<path opacity="0.5" d="M910.468 13.3649C911.278 11.5061 913.353 10.5496 915.292 11.1409C915.436 11.1872 915.584 11.2164 915.735 11.2278C916.62 11.2867 917.438 10.756 917.745 9.92399C918.051 9.09194 917.773 8.15728 917.062 7.62784C916.94 7.53904 916.808 7.46493 916.669 7.4069C914.81 6.59705 913.853 4.52226 914.445 2.5828C914.491 2.43908 914.521 2.29039 914.532 2.13981C914.591 1.255 914.06 0.437107 913.228 0.130407C912.396 -0.176293 911.462 0.101522 910.932 0.812902C910.843 0.934742 910.769 1.0666 910.711 1.20585C909.901 3.0647 907.827 4.02118 905.887 3.42985C905.743 3.38356 905.594 3.35432 905.444 3.34281C904.559 3.28388 903.741 3.8146 903.435 4.64664C903.128 5.47869 903.406 6.41347 904.117 6.94291C904.239 7.03212 904.371 7.10656 904.51 7.16483C906.369 7.97468 907.325 10.0493 906.734 11.9888C906.688 12.1325 906.658 12.2812 906.647 12.4318C906.588 13.3166 907.119 14.1346 907.951 14.4413C908.783 14.748 909.718 14.4702 910.247 13.7588C910.336 13.6366 910.41 13.5045 910.468 13.3649Z" fill="#4D8AF0"/>
<path opacity="0.5" d="M193.144 61.3639C193.954 59.5051 196.029 58.5486 197.968 59.1399C198.112 59.1863 198.26 59.2154 198.411 59.2269C199.296 59.2858 200.114 58.7551 200.421 57.9231C200.727 57.091 200.449 56.1564 199.738 55.6269C199.616 55.5381 199.484 55.4639 199.345 55.4059C197.486 54.5961 196.529 52.5213 197.121 50.5819C197.167 50.4382 197.197 50.2895 197.208 50.1389C197.267 49.2541 196.736 48.4361 195.904 48.1294C195.072 47.8227 194.138 48.1005 193.608 48.8119C193.519 48.9338 193.445 49.0657 193.387 49.2049C192.577 51.0638 190.503 52.0203 188.563 51.4289C188.419 51.3826 188.27 51.3534 188.12 51.3419C187.235 51.283 186.417 51.8137 186.111 52.6458C185.804 53.4778 186.082 54.4125 186.793 54.9419C186.915 55.0311 187.047 55.1056 187.186 55.1639C189.045 55.9738 190.001 58.0484 189.41 59.9879C189.364 60.1316 189.334 60.2803 189.323 60.4309C189.264 61.3157 189.795 62.1337 190.627 62.4404C191.459 62.7471 192.394 62.4693 192.923 61.7579C193.012 61.6357 193.086 61.5035 193.144 61.3639Z" fill="#4D8AF0"/>
</svg>
