<svg width="1050" height="271" viewBox="0 0 1050 271" fill="none" xmlns="http://www.w3.org/2000/svg">
<g opacity="0.5">
<path d="M610 239.141V242.4H628.467V239.141H610Z" fill="#47E6B1"/>
<path d="M620.863 231.537H617.604V250.004H620.863V231.537Z" fill="#47E6B1"/>
</g>
<g opacity="0.3">
<g opacity="0.5">
<path d="M952.639 193.557L953.148 190.338L934.909 187.449L934.399 190.668L952.639 193.557Z" fill="#47E6B1"/>
<path d="M940.72 199.368L943.938 199.878L946.827 181.638L943.608 181.128L940.72 199.368Z" fill="#47E6B1"/>
</g>
<g opacity="0.5">
<path d="M684.164 59.4785L684.674 56.2596L666.434 53.3707L665.924 56.5896L684.164 59.4785Z" fill="#47E6B1"/>
<path d="M672.245 65.2895L675.464 65.7993L678.353 47.5597L675.134 47.0499L672.245 65.2895Z" fill="#47E6B1"/>
</g>
<path opacity="0.5" d="M848.321 108.236C847.758 111.791 850.183 115.13 853.739 115.693C857.294 116.256 860.633 113.83 861.196 110.275C861.759 106.719 859.334 103.381 855.778 102.817C852.223 102.254 848.884 104.68 848.321 108.236Z" fill="#F55F44"/>
<path opacity="0.5" d="M749.128 197.888C750.219 196.179 752.418 195.559 754.241 196.446C754.375 196.515 754.518 196.567 754.665 196.602C755.527 196.793 756.413 196.396 756.844 195.625C757.275 194.854 757.149 193.891 756.534 193.257C756.427 193.15 756.309 193.056 756.18 192.977C754.472 191.885 753.853 189.686 754.741 187.864C754.81 187.729 754.862 187.587 754.897 187.44C755.088 186.578 754.691 185.692 753.92 185.261C753.149 184.83 752.186 184.956 751.552 185.571C751.445 185.677 751.351 185.796 751.272 185.924C750.182 187.634 747.983 188.254 746.16 187.366C746.025 187.298 745.883 187.246 745.736 187.211C744.871 187.015 743.98 187.411 743.547 188.185C743.114 188.958 743.242 189.925 743.862 190.559C743.968 190.666 744.087 190.761 744.215 190.84C745.925 191.931 746.545 194.129 745.657 195.952C745.589 196.087 745.537 196.229 745.502 196.376C745.305 197.241 745.702 198.132 746.476 198.565C747.249 198.998 748.216 198.87 748.85 198.25C748.957 198.141 749.05 198.02 749.128 197.888Z" fill="#4D8AF0"/>
<path opacity="0.5" d="M1040.19 86.63C1041.28 84.9207 1043.48 84.3005 1045.3 85.188C1045.43 85.2562 1045.58 85.3084 1045.72 85.3432C1046.59 85.5347 1047.47 85.1376 1047.9 84.3665C1048.33 83.5953 1048.21 82.6327 1047.59 81.9985C1047.49 81.8917 1047.37 81.7978 1047.24 81.7187C1045.53 80.627 1044.91 78.4281 1045.8 76.6057C1045.87 76.471 1045.92 76.3287 1045.96 76.1817C1046.15 75.3193 1045.75 74.4334 1044.98 74.0024C1044.21 73.5714 1043.24 73.6975 1042.61 74.3125C1042.5 74.4189 1042.41 74.5376 1042.33 74.6661C1041.24 76.3753 1039.04 76.9955 1037.22 76.108C1037.08 76.0398 1036.94 75.9877 1036.79 75.9528C1035.93 75.7562 1035.04 76.1524 1034.61 76.9263C1034.17 77.7001 1034.3 78.6667 1034.92 79.3009C1035.03 79.4081 1035.15 79.5023 1035.27 79.5817C1036.98 80.6723 1037.6 82.8711 1036.72 84.6942C1036.65 84.8289 1036.6 84.9712 1036.56 85.1181C1036.36 85.9828 1036.76 86.8737 1037.53 87.3068C1038.31 87.7399 1039.27 87.6117 1039.91 86.9919C1040.02 86.8828 1040.11 86.7613 1040.19 86.63Z" fill="#4D8AF0"/>
<path opacity="0.5" d="M560.593 113.263C560.03 116.819 562.456 120.157 566.011 120.72C569.567 121.284 572.906 118.858 573.469 115.302C574.032 111.747 571.606 108.408 568.051 107.845C564.495 107.282 561.156 109.708 560.593 113.263Z" fill="#4D8AF0"/>
</g>
<g opacity="0.5">
<path d="M0 259.141L0 262.4H18.467V259.141H0Z" fill="#47E6B1"/>
<path d="M10.863 251.536H7.604V270.003H10.863V251.536Z" fill="#47E6B1"/>
</g>
</svg>
