<svg width="659" height="525" viewBox="0 0 659 525" fill="none" xmlns="http://www.w3.org/2000/svg">
<g opacity="0.3">
<g opacity="0.5">
<path d="M121.873 516.771V513.512H103.406V516.771H121.873Z" fill="#47E6B1"/>
<path d="M114.269 505.908H111.01V524.375H114.269V505.908Z" fill="#47E6B1"/>
</g>
<g opacity="0.5">
<path d="M504.08 358.034V354.775H485.613V358.034H504.08Z" fill="#47E6B1"/>
<path d="M496.476 347.171H493.217V365.638H496.476V347.171Z" fill="#47E6B1"/>
</g>
<path opacity="0.5" d="M240.699 368.252C240.699 371.852 243.618 374.77 247.217 374.77C250.817 374.77 253.735 371.852 253.735 368.252C253.735 364.653 250.817 361.734 247.217 361.734C243.618 361.734 240.699 364.653 240.699 368.252Z" fill="#F55F44"/>
<path opacity="0.5" d="M7.69501 305.47C6.88516 303.612 4.81048 302.655 2.87101 303.246C2.72729 303.293 2.57859 303.322 2.42801 303.333C1.5432 303.392 0.725228 302.862 0.418526 302.03C0.111824 301.198 0.389635 300.263 1.10102 299.733C1.22291 299.645 1.35481 299.57 1.49401 299.512C3.35287 298.703 4.30936 296.628 3.71801 294.688C3.67166 294.545 3.64246 294.396 3.63101 294.245C3.57763 293.364 4.10904 292.551 4.93834 292.247C5.76764 291.943 6.69838 292.218 7.22801 292.925C7.31705 293.046 7.39156 293.177 7.45002 293.315C8.25987 295.174 10.3346 296.131 12.274 295.539C12.4178 295.493 12.5664 295.464 12.717 295.452C13.5988 295.398 14.4117 295.929 14.7167 296.758C15.0217 297.587 14.7467 298.518 14.04 299.048C13.9182 299.138 13.7863 299.212 13.647 299.27C11.7882 300.08 10.8317 302.155 11.423 304.094C11.4693 304.238 11.4985 304.387 11.51 304.537C11.5689 305.422 11.0382 306.24 10.2062 306.547C9.37411 306.854 8.43946 306.576 7.91002 305.864C7.8232 305.742 7.75104 305.61 7.69501 305.47Z" fill="#4D8AF0"/>
<path opacity="0.5" d="M618.18 485.67C618.18 489.27 621.098 492.188 624.698 492.188C628.298 492.188 631.216 489.27 631.216 485.67C631.216 482.071 628.298 479.152 624.698 479.152C621.098 479.152 618.18 482.071 618.18 485.67Z" fill="#4D8AF0"/>
</g>
<g opacity="0.3">
<g opacity="0.5">
<path d="M561.639 193.557L562.148 190.338L543.909 187.449L543.399 190.668L561.639 193.557Z" fill="#47E6B1"/>
<path d="M549.72 199.368L552.938 199.878L555.827 181.638L552.608 181.128L549.72 199.368Z" fill="#47E6B1"/>
</g>
<g opacity="0.5">
<path d="M293.164 59.4785L293.674 56.2596L275.434 53.3708L274.924 56.5896L293.164 59.4785Z" fill="#47E6B1"/>
<path d="M281.245 65.2896L284.464 65.7994L287.353 47.5598L284.134 47.05L281.245 65.2896Z" fill="#47E6B1"/>
</g>
<path opacity="0.5" d="M457.321 108.236C456.758 111.791 459.183 115.13 462.739 115.693C466.294 116.256 469.633 113.83 470.196 110.275C470.759 106.719 468.334 103.381 464.778 102.817C461.223 102.254 457.884 104.68 457.321 108.236Z" fill="#F55F44"/>
<path opacity="0.5" d="M358.128 197.888C359.219 196.179 361.418 195.559 363.241 196.446C363.375 196.515 363.518 196.567 363.665 196.602C364.527 196.793 365.413 196.396 365.844 195.625C366.275 194.854 366.149 193.891 365.534 193.257C365.427 193.15 365.309 193.056 365.18 192.977C363.472 191.885 362.853 189.686 363.741 187.864C363.81 187.729 363.862 187.587 363.897 187.44C364.088 186.578 363.691 185.692 362.92 185.261C362.149 184.83 361.186 184.956 360.552 185.571C360.445 185.677 360.351 185.796 360.272 185.924C359.182 187.634 356.983 188.254 355.16 187.366C355.025 187.298 354.883 187.246 354.736 187.211C353.871 187.015 352.98 187.411 352.547 188.185C352.114 188.958 352.242 189.925 352.862 190.559C352.968 190.666 353.087 190.761 353.215 190.84C354.925 191.931 355.545 194.129 354.657 195.952C354.589 196.087 354.537 196.229 354.502 196.376C354.305 197.241 354.702 198.132 355.476 198.565C356.249 198.998 357.216 198.87 357.85 198.25C357.957 198.141 358.05 198.02 358.128 197.888Z" fill="#4D8AF0"/>
<path opacity="0.5" d="M649.187 86.63C650.277 84.9207 652.476 84.3005 654.299 85.188C654.434 85.2562 654.576 85.3084 654.723 85.3432C655.586 85.5347 656.472 85.1376 656.903 84.3665C657.334 83.5953 657.208 82.6327 656.593 81.9985C656.486 81.8917 656.367 81.7978 656.239 81.7187C654.53 80.627 653.912 78.4281 654.8 76.6057C654.868 76.471 654.92 76.3287 654.955 76.1817C655.147 75.3193 654.75 74.4334 653.979 74.0024C653.207 73.5714 652.245 73.6975 651.611 74.3125C651.504 74.4189 651.41 74.5376 651.331 74.6661C650.24 76.3753 648.041 76.9955 646.218 76.108C646.084 76.0398 645.941 75.9877 645.794 75.9528C644.93 75.7562 644.039 76.1524 643.606 76.9263C643.173 77.7001 643.301 78.6667 643.92 79.3009C644.027 79.4081 644.145 79.5023 644.274 79.5817C645.983 80.6723 646.603 82.8711 645.716 84.6942C645.648 84.8289 645.596 84.9712 645.561 85.1181C645.364 85.9828 645.76 86.8737 646.534 87.3068C647.308 87.7399 648.275 87.6117 648.909 86.9919C649.015 86.8828 649.109 86.7613 649.187 86.63Z" fill="#4D8AF0"/>
<path opacity="0.5" d="M169.593 113.263C169.03 116.818 171.456 120.157 175.011 120.72C178.567 121.284 181.906 118.858 182.469 115.302C183.032 111.747 180.606 108.408 177.051 107.845C173.495 107.282 170.156 109.708 169.593 113.263Z" fill="#4D8AF0"/>
</g>
</svg>
