<svg width="218" height="147" viewBox="0 0 218 147" fill="none" xmlns="http://www.w3.org/2000/svg">
<path opacity="0.1" d="M184.402 119.918C183.782 120.536 183.149 121.136 182.503 121.718C182.394 121.818 182.281 121.918 182.171 122.018C179.878 124.035 177.449 125.894 174.903 127.58L174.43 127.892C174.316 127.97 174.203 128.043 174.084 128.115C171.443 129.842 168.704 131.432 165.933 132.937L165.904 132.955L165.695 133.067C163.459 134.281 161.19 135.443 158.887 136.552L158.832 136.576C157.794 137.071 156.756 137.554 155.718 138.023C155.294 138.223 154.868 138.401 154.442 138.588C153.643 138.935 152.843 139.276 152.028 139.603L151.928 139.646L151.755 139.715L151.539 139.805C149.427 140.66 147.286 141.449 145.118 142.173L145.08 142.185C143.567 142.684 142.045 143.146 140.514 143.571L140.305 143.63C138.056 144.246 135.77 144.775 133.47 145.198L132.94 145.298C131.258 145.597 129.564 145.842 127.859 146.031C118.274 147.08 108.575 146.231 99.0487 144.765C79.8135 141.809 60.8322 136.265 43.5213 127.581C40.1986 125.914 36.9409 124.13 33.7482 122.229C33.7222 122.213 33.7003 122.198 33.6743 122.184C31.763 121.046 29.8775 119.86 28.0176 118.626C27.4728 118.269 26.931 117.905 26.3922 117.538C25.7298 117.086 25.0704 116.629 24.414 116.166C23.5477 115.555 22.6814 114.928 21.8151 114.286L21.4102 113.98L21.2543 113.86C21.0344 113.693 20.8185 113.527 20.6006 113.36C12.4679 107.087 5.21483 99.485 1.78923 89.971C-2.17017 78.993 0.3638 65.071 10.1698 58.586C13.6416 56.4795 17.4443 54.975 21.4173 54.136L21.8221 54.036C22.4918 53.869 23.1615 53.7091 23.8273 53.5481C26.1613 52.9871 28.5084 52.4311 30.8324 51.8091C32.0439 51.4861 33.2424 51.1461 34.431 50.7801L34.9188 50.627C37.8117 49.7462 40.6254 48.6235 43.3303 47.271H43.3473C43.6399 47.1237 43.9284 46.9714 44.213 46.8141C44.3969 46.7141 44.5798 46.6141 44.7638 46.5141C47.7056 44.8561 66.5849 40.5511 76.8227 30.7571C87.0606 20.9631 79.1918 13.586 85.7191 7.33902C91.4613 1.87179 99.5735 -0.327496 107.289 1.49106C107.782 1.61606 108.276 1.74803 108.766 1.88303C114.076 3.34225 119.279 5.16522 124.339 7.33902C137.556 12.971 150.029 20.791 161.685 29.42L162.031 29.675C162.518 30.0344 163.002 30.3951 163.483 30.7571C164.415 31.4564 165.338 32.16 166.251 32.868L166.869 33.344C167.174 33.5794 167.477 33.8154 167.778 34.052L168.705 34.779C168.75 34.8091 168.791 34.8425 168.83 34.8791L169.619 35.498C170.076 35.859 170.53 36.221 170.984 36.586L171.96 37.37C172.16 37.535 172.367 37.697 172.569 37.864L173.607 38.7231L173.839 38.9231C173.887 38.9621 173.939 39.001 173.983 39.045L174.012 39.0671C176.826 41.4061 179.572 43.831 182.145 46.401L182.477 46.734L182.512 46.769C182.792 47.051 183.073 47.3371 183.347 47.6261C186.719 51.0406 189.683 54.8349 192.18 58.933C203.482 77.934 200.124 104.26 184.402 119.918Z" fill="#1CE5AF"/>
<path d="M217.209 65.1772C217.334 64.8362 216.397 62.9422 216.397 62.8482C216.397 62.7542 215.417 61.7012 215.417 61.1092C215.417 60.5172 214.138 59.2472 214.138 59.2472C213.174 58.8433 212.464 57.9998 212.23 56.9812C212.042 55.4302 210.238 55.3972 210.169 55.3952C210.169 55.3952 210.169 55.2542 210.181 55.0382C210.212 54.4243 210.134 53.8097 209.95 53.2232C209.727 52.7957 209.345 52.4726 208.887 52.3232C208.81 51.7625 208.618 51.2238 208.322 50.7412C207.897 50.2948 207.732 49.6601 207.887 49.0632C207.972 48.5664 207.886 48.0556 207.643 47.6142C207.477 47.2107 207.143 46.9002 206.729 46.7652H206.696C205.796 46.5472 204.797 46.2142 204.797 46.2142C204.797 46.2142 204.697 46.2342 204.544 46.2552L204.419 46.2142C204.202 46.2544 203.984 46.2818 203.764 46.2962C203.572 46.3028 203.384 46.2411 203.233 46.1222C202.19 45.6143 201.071 45.2786 199.92 45.1282C199.292 44.9959 198.683 44.7874 198.105 44.5072L196.763 43.4822C196.309 42.9891 195.914 42.4444 195.587 41.8592L195.571 41.8372C195.474 41.6151 195.391 41.3866 195.325 41.1532C195.311 41.1102 195.301 41.0672 195.288 41.0202C195.56 40.7348 195.81 40.4282 196.034 40.1032V40.0932C196.095 40.0092 196.152 39.9172 196.208 39.8282C196.291 39.6949 196.369 39.5595 196.443 39.4222C196.474 39.3612 196.504 39.2992 196.535 39.2402C196.603 39.2379 196.67 39.2268 196.735 39.2072L196.819 39.1762C196.896 39.1407 196.969 39.0953 197.035 39.0412L197.098 38.9842C197.274 38.8181 197.408 38.6124 197.49 38.3842C197.512 38.3172 197.531 38.2492 197.547 38.1842C197.55 38.1599 197.556 38.136 197.565 38.1132C197.571 38.0912 197.586 38.0192 197.594 37.9702L197.606 37.8922C197.609 37.8453 197.617 37.7987 197.629 37.7532C197.633 37.7267 197.633 37.6997 197.629 37.6732C197.629 37.6162 197.645 37.5552 197.651 37.4972C197.678 37.2752 197.702 37.0582 197.751 36.8422C197.752 36.8389 197.752 36.8355 197.751 36.8322C197.853 36.4167 198.009 36.0161 198.213 35.6402C198.413 35.2622 198.625 34.8892 198.801 34.4992C198.852 34.3872 198.901 34.2742 198.944 34.1602C198.987 34.0462 199.03 33.9092 199.069 33.7822C199.074 33.7426 199.083 33.7037 199.096 33.6662C199.122 33.574 199.143 33.4805 199.159 33.3862C199.17 33.3454 199.178 33.304 199.183 33.2622C199.206 33.1332 199.222 33.0032 199.234 32.8702C199.297 32.1278 199.188 31.3808 198.913 30.6882C198.68 30.1002 198.325 29.5802 198.092 28.9982C197.734 28.1142 197.64 27.1142 197.201 26.2712C196.466 24.8575 194.815 24.1857 193.302 24.6852C192.625 24.9362 192.035 25.4282 191.343 25.6492C190.395 25.8433 189.415 25.8225 188.476 25.5882C187.522 25.358 186.515 25.5316 185.693 26.0682C184.81 26.7872 184.567 28.1402 183.734 28.9282C183.532 29.111 183.313 29.275 183.082 29.4182C182.913 29.5342 182.743 29.6472 182.582 29.7792C182.323 29.9844 182.123 30.2551 182.004 30.5632C181.996 30.5851 181.989 30.6075 181.983 30.6302C181.974 30.6563 181.966 30.6831 181.961 30.7102C181.958 30.7411 181.953 30.7718 181.947 30.8022C181.945 30.8238 181.945 30.8456 181.947 30.8672C181.944 30.9141 181.944 30.9612 181.947 31.0082V31.0322C181.951 31.0851 181.959 31.1377 181.972 31.1892V31.2322C181.981 31.2762 181.994 31.3194 182.011 31.3612C182.012 31.3698 182.012 31.3786 182.011 31.3872C182.027 31.4352 182.046 31.4822 182.068 31.5282C182.073 31.5532 182.082 31.5772 182.095 31.5992C182.106 31.6177 182.115 31.6375 182.122 31.6582C182.243 31.8871 182.341 32.128 182.412 32.3772C182.45 32.5358 182.44 32.7023 182.383 32.8552C182.353 32.9314 182.31 33.0023 182.258 33.0652C182.19 33.1507 182.117 33.2318 182.039 33.3082C181.417 33.9557 180.936 34.7252 180.627 35.5682C180.592 35.6682 180.558 35.7682 180.527 35.8602L180.568 35.8722L180.609 35.8822C180.685 35.9052 180.763 35.9216 180.841 35.9312C180.893 35.9401 180.946 35.9461 180.998 35.9492C181.213 35.9605 181.427 35.9434 181.637 35.8982C181.671 35.892 181.704 35.884 181.737 35.8742C181.748 35.8724 181.758 35.869 181.768 35.8642H181.788C181.964 35.8187 182.136 35.7592 182.302 35.6862C182.341 35.6682 182.382 35.6532 182.422 35.6332V36.3622C182.57 38.8715 183.985 41.1327 186.176 42.3622C186.288 42.4272 186.397 42.4872 186.511 42.5442C186.521 42.6112 186.531 42.6792 186.538 42.7442C186.545 42.8092 186.554 42.8562 186.56 42.9132L186.474 42.8332C186.401 42.8014 186.321 42.7853 186.241 42.7862C186.111 42.7865 185.983 42.821 185.869 42.8862C185.669 43.0013 185.502 43.165 185.382 43.3622C184.992 43.8911 184.461 44.2989 183.849 44.5382C183.849 44.5382 178.167 45.4382 177.944 46.1832L175.287 46.3402C175.287 46.3402 174.348 46.4642 174.256 48.4202V48.4652C174.242 48.6982 174.225 48.9062 174.203 49.0922V49.1192C174.038 50.4192 173.666 50.5622 173.666 50.5622C173.132 51.4544 172.792 52.4489 172.667 53.4812C172.668 53.4892 172.668 53.4972 172.667 53.5052C172.679 53.6391 172.67 53.7741 172.641 53.9052C172.517 54.3514 172.223 54.731 171.822 54.9622L171.699 56.7262C171.046 56.6601 170.462 57.1311 170.387 57.7832C170.267 58.4243 169.998 59.0284 169.603 59.5472C169.603 59.5472 167.885 60.9762 167.791 62.1862L166.727 62.8392C166.727 62.8392 164.26 62.2802 163.695 61.2862C163.695 61.2862 163.628 61.2192 163.523 61.1232L163.507 61.0992C163.507 61.1032 163.507 61.1072 163.507 61.1112C163.188 60.7802 162.843 60.4753 162.475 60.1992C162.547 60.3554 162.565 60.5316 162.526 60.6992L162.342 60.4992L161.85 59.9502C161.85 59.9502 161.15 59.2912 160.157 58.5052C159.931 58.3252 159.692 58.1409 159.441 57.9522C158.3 56.9943 156.962 56.2994 155.522 55.9172C155.498 55.8702 155.404 55.5172 155.183 55.5172C155.09 55.5252 155.003 55.5681 154.94 55.6372C154.272 56.2515 153.89 57.1165 153.886 58.0241C153.882 58.9318 154.256 59.8 154.919 60.4202L155.176 60.6592L155.976 61.4042L158.66 63.9132C158.693 63.9372 158.725 63.9622 158.76 63.9842L158.919 64.1842L159.043 64.3432L159.257 64.6152L159.565 65.0072C159.549 65.0482 159.532 65.0872 159.518 65.1272C159.402 65.4092 159.302 65.6842 159.218 65.9352V65.9622C159.198 66.0252 159.179 66.0842 159.161 66.1422C159.157 66.1633 159.151 66.1838 159.141 66.2032C159.121 66.2622 159.106 66.3212 159.088 66.3742C159.077 66.407 159.068 66.4403 159.061 66.4742C159.056 66.4949 159.049 66.5153 159.041 66.5352C158.953 66.8472 158.898 67.0862 158.869 67.2192L158.661 67.1542L158.861 67.2422C158.862 67.2532 158.862 67.2642 158.861 67.2752L158.849 67.3382C158.91 67.3672 158.974 67.3952 159.049 67.4222L159.094 67.4422L159.862 67.7812C160.017 67.8502 160.185 67.9222 160.362 68.0042C160.539 68.0862 160.682 68.1472 160.856 68.2222C162.577 68.9294 164.253 69.7426 165.874 70.6572C167.052 71.6735 168.716 71.9037 170.126 71.2452C171.186 70.7381 172.005 69.834 172.405 68.7282C173.093 67.8086 173.72 66.8444 174.282 65.8422C174.329 65.5562 175.168 65.2322 175.556 65.0972L175.593 65.0852L175.75 65.0342V65.5082C175.775 66.8998 175.679 68.2911 175.464 69.6662C175.463 69.6702 175.463 69.6743 175.464 69.6782C175.402 70.0358 175.297 70.3846 175.152 70.7172C174.433 72.2382 173.091 78.9782 173.091 78.9782H173.122C173.199 78.9641 173.278 78.96 173.356 78.9662C173.329 79.0912 173.311 79.1902 173.298 79.2562C173.284 79.3222 173.277 79.3562 173.277 79.3562H173.301C173.376 79.342 173.452 79.3372 173.528 79.3422C173.554 79.3435 173.579 79.3468 173.604 79.3522C173.601 79.3995 173.594 79.4466 173.584 79.4932V79.5422C173.584 79.5502 173.572 79.6032 173.568 79.6362C173.405 80.7572 172.936 83.6762 172.936 83.6762C172.857 84.4177 172.689 85.147 172.436 85.8482C172.271 86.355 172.182 86.8834 172.173 87.4162C172.173 87.5162 172.159 87.6162 172.151 87.7162C172.1 88.5472 172.092 89.3252 172.092 89.3252L172.078 89.3762L171.617 91.4662C171.625 91.4856 171.633 91.5046 171.642 91.5232C171.675 91.5862 171.728 91.6942 171.805 91.8232L171.829 91.8742C172.106 92.4391 172.473 92.9554 172.915 93.4032C173.017 93.5048 173.127 93.5984 173.244 93.6832C173.241 93.7066 173.236 93.7297 173.23 93.7522C173.23 93.7722 173.218 93.8262 173.212 93.8622C173.171 94.132 173.097 94.3954 172.99 94.6462C172.867 94.9164 172.791 95.2055 172.765 95.5012C172.741 95.712 172.734 95.9243 172.745 96.1362L172.719 96.2522C172.65 96.5722 172.454 97.5092 172.349 98.2712C172.323 98.4452 172.3 98.6142 172.286 98.7712C172.273 98.9165 172.273 99.0628 172.286 99.2082C172.298 99.4532 172.285 99.6988 172.247 99.9412C172.243 100.014 172.234 100.086 172.221 100.157C172.115 100.847 171.941 101.57 171.941 101.57L171.378 106.97V107.29C171.38 107.338 171.376 107.385 171.366 107.431C171.366 107.558 171.346 107.709 171.333 107.886C171.333 107.953 171.329 108.02 171.321 108.086C171.323 108.148 171.319 108.211 171.309 108.272V108.372C171.31 108.424 171.307 108.476 171.299 108.527C171.294 108.577 171.294 108.627 171.299 108.676V108.815C171.281 109.103 171.262 109.415 171.248 109.73V110.03C171.25 110.13 171.246 110.231 171.234 110.33V112.33C171.239 112.539 171.254 112.747 171.281 112.953C171.302 113.106 171.318 113.267 171.326 113.431V113.658C171.328 113.696 171.328 113.734 171.326 113.772V114.65C171.277 115.324 171.185 115.871 171.171 115.958V116.142C171.171 116.191 171.183 116.254 171.189 116.322V116.422C171.188 116.461 171.192 116.499 171.201 116.536C171.213 116.575 171.201 116.573 171.201 116.595C171.204 116.669 171.211 116.742 171.221 116.815C171.229 116.891 171.239 116.974 171.244 117.056L171.256 117.211C171.256 117.286 171.272 117.364 171.278 117.44V117.518C171.278 117.571 171.29 117.618 171.294 117.677L171.312 117.918C171.312 117.971 171.324 118.026 171.328 118.079C171.33 118.106 171.33 118.134 171.328 118.161L171.353 118.479C171.352 118.532 171.355 118.584 171.363 118.636C171.366 118.718 171.373 118.8 171.383 118.881C171.391 118.959 171.383 119.061 171.397 119.144C171.407 119.223 171.411 119.303 171.409 119.383C171.432 119.604 171.432 119.827 171.409 120.048C171.358 120.272 171.193 120.897 171.099 121.575C171.099 121.636 171.081 121.697 171.075 121.759C171.072 121.796 171.072 121.833 171.075 121.869L171.063 122.016C171.063 122.134 171.049 122.253 171.049 122.369C171.041 122.633 171.07 122.898 171.137 123.153C171.183 123.323 171.216 123.496 171.237 123.671C171.236 123.7 171.239 123.729 171.247 123.757C171.247 123.82 171.261 123.884 171.267 123.957C171.273 124.03 171.277 124.09 171.281 124.157C171.281 124.294 171.293 124.435 171.299 124.578V124.862C171.313 125.689 171.273 126.499 171.262 126.707V126.758C171.262 126.758 171.462 130.238 171.668 131.358C171.695 131.505 171.715 131.658 171.729 131.807C171.728 131.864 171.731 131.922 171.739 131.978C171.766 132.624 171.722 133.271 171.606 133.907C171.548 134.709 171.443 135.507 171.294 136.297C171.104 136.567 171.005 136.892 171.014 137.222V137.238C171 138.126 171.376 138.974 172.043 139.559L172.137 139.651L172.251 139.608C173.168 139.281 174.077 138.94 174.985 138.593C175.467 138.407 175.948 138.221 176.429 138.028C177.615 137.562 178.791 137.079 179.957 136.581C179.901 136.552 179.861 136.501 179.845 136.44C179.766 135.708 179.814 134.968 179.988 134.252C180.043 134.025 180.551 129.188 180.551 129.188C180.445 128.467 180.466 127.732 180.614 127.018C180.872 126.367 180.3 123.848 180.3 123.848C180.186 123.612 180.251 123.329 180.457 123.166C180.809 122.794 180.676 119.466 180.676 119.466C180.676 119.466 180.645 117.788 180.645 117.353C180.737 116.469 180.98 115.607 181.363 114.805C181.565 114.098 181.608 113.355 181.49 112.629L181.51 112.504C181.515 112.446 181.524 112.387 181.537 112.33L181.566 112.163C181.714 111.252 181.917 110.35 182.174 109.463C182.582 108.163 183.05 105.863 183.05 105.863L185.783 98.5292L185.873 98.3022L185.906 98.2122C186.685 99.6945 187.142 101.324 187.249 102.995C187.407 104.158 187.492 105.33 187.502 106.504C187.524 107.926 187.617 109.346 187.782 110.758C187.782 110.758 188.181 115.79 188.181 116.006C188.332 117.583 188.604 119.146 188.997 120.681C189.311 121.269 188.683 123.073 188.497 123.259C188.424 124.843 188.445 126.43 188.56 128.011C188.56 128.011 188.088 131.611 187.996 132.357C187.978 132.492 187.951 132.696 187.922 132.945C191.056 131.439 194.163 129.845 197.153 128.122C197.282 128.049 197.41 127.977 197.545 127.899L197.567 123.443C197.683 122.472 197.673 121.49 197.536 120.522C197.285 119.681 197.036 118.072 197.381 117.636C197.726 117.2 197.412 115.184 197.412 115.184C197.412 115.184 197.412 110.928 197.88 109.873C198.349 108.818 198.194 102.141 198.194 102.141L198.318 97.7622C198.318 97.7622 199.318 96.8172 199.102 91.9222V91.7372C199.934 91.624 200.779 91.6392 201.606 91.7822C202.535 92.5084 203.691 92.8822 204.869 92.8372C205.083 92.7961 205.288 92.7113 205.468 92.5882C206.013 92.2142 206.536 91.8099 207.036 91.3772L206.536 83.0002L206.483 82.0692C206.577 82.2122 206.659 82.3402 206.73 82.4612C206.93 82.7612 207.03 82.9412 207.03 82.9412C207.03 81.6412 210.719 77.4152 210.719 77.4152C212.025 75.6847 213.422 74.0259 214.907 72.4462C215.784 71.4366 216.53 70.3201 217.127 69.1232C217.344 68.5901 217.594 68.0714 217.877 67.5702C218.214 67.0102 217.084 65.5182 217.209 65.1772ZM206.206 71.1372C206.138 71.4459 205.995 71.7331 205.79 71.9742C205.774 71.7742 205.759 71.5962 205.743 71.4002V71.3492C205.522 69.236 205.406 67.113 205.396 64.9882C205.496 64.4609 205.539 63.9246 205.525 63.3882C205.539 62.6372 205.525 61.9222 205.525 61.9222L205.56 61.8732C206.192 63.4174 207.066 64.8509 208.149 66.1192C208.149 66.1192 208.494 67.1132 208.9 67.1442C209.306 67.1752 209.149 68.4442 209.149 68.4442C208.96 68.4757 208.779 68.5436 208.616 68.6442C208.423 68.7555 208.238 68.8805 208.063 69.0182C207.287 69.5698 206.651 70.2955 206.206 71.1372Z" fill="url(#paint0_linear_125_8995)"/>
<path d="M159.035 67.7371C159.035 67.7371 160.176 61.7581 163.84 61.7271L166.521 67.243L164.722 68.4681C164.722 68.4681 160.846 68.5921 159.035 67.7371Z" fill="#65617D"/>
<path opacity="0.1" d="M166.513 67.2361L164.714 68.4691C163.143 68.5125 161.573 68.3811 160.031 68.0771C159.687 67.9973 159.353 67.8838 159.031 67.7381C159.033 67.704 159.04 67.6703 159.051 67.6381C159.051 67.6304 159.051 67.6227 159.051 67.6151C159.22 66.8634 159.452 66.1275 159.745 65.4151C159.857 65.1461 159.986 64.8701 160.123 64.5941C160.611 63.5216 161.424 62.6302 162.447 62.0461C162.828 61.8589 163.243 61.7501 163.667 61.7261H163.83L163.891 61.8481L164.797 63.7121L166.513 67.2361Z" fill="black"/>
<path d="M196.948 92.0792C196.948 92.0792 200.798 91.7102 201.137 91.9872C201.476 92.2642 203.663 93.6872 204.959 92.7872C206.254 91.8872 205.389 88.7802 205.389 88.6572C205.389 88.5342 205.265 84.1272 205.265 84.1272L202.955 81.0142L200.057 75.5602L194.143 74.9722L194.296 83.6332L194.266 88.0712L196.948 92.0792Z" fill="#65617D"/>
<path opacity="0.1" d="M196.948 92.0792C196.948 92.0792 200.798 91.7102 201.137 91.9872C201.476 92.2642 203.663 93.6872 204.959 92.7872C206.254 91.8872 205.389 88.7802 205.389 88.6572C205.389 88.5342 205.265 84.1272 205.265 84.1272L202.955 81.0142L200.057 75.5602L194.143 74.9722L194.296 83.6332L194.266 88.0712L196.948 92.0792Z" fill="black"/>
<path d="M163.062 61.566C163.062 61.566 162.762 65.326 160.407 65.385C159.87 65.0565 159.351 64.7007 158.851 64.3191C156.794 62.7801 153.532 59.819 154.432 57.066C155.726 53.122 162.01 60.399 162.01 60.399L162.494 60.94L163.062 61.566Z" fill="#A5636D"/>
<path opacity="0.1" d="M163.062 61.5661C163.062 61.5661 162.762 65.3261 160.407 65.3851C159.87 65.0559 159.351 64.6995 158.851 64.3171L158.651 64.0601C159.049 64.2684 159.487 64.3869 159.935 64.4071C160.66 64.444 161.331 64.021 161.61 63.3502C161.856 62.8662 162.073 62.368 162.259 61.8582C162.37 61.5591 162.449 61.2489 162.494 60.9331L163.062 61.5661Z" fill="black"/>
<path d="M162.044 68.3761L161.517 67.6981L159.754 65.4141L158.838 64.2471C159.235 64.4545 159.673 64.5722 160.12 64.592C160.846 64.6298 161.517 64.2066 161.795 63.5351C162.042 63.0515 162.258 62.5533 162.444 62.0431C162.736 61.2121 162.73 60.7841 162.626 60.6431C162.987 60.9201 163.327 61.2229 163.644 61.5491L163.658 61.5611L163.827 61.722L163.892 61.847L164.784 63.6331V63.7071C164.866 64.2711 165.166 67.8661 162.044 68.3761Z" fill="#E7EFFD"/>
<path d="M179.928 136.546C179.872 136.498 179.81 136.457 179.744 136.424H179.728C179.359 136.269 179.697 134.358 179.759 134.111C179.821 133.864 180.314 129.096 180.314 129.096C180.214 128.379 180.236 127.65 180.377 126.94C180.431 125.885 180.327 124.827 180.067 123.803C179.961 123.568 180.024 123.291 180.222 123.125C180.561 122.754 180.438 119.457 180.438 119.457C180.438 119.457 180.409 117.795 180.409 117.357C180.497 116.48 180.737 115.625 181.116 114.83C181.317 114.129 181.359 113.393 181.24 112.674L181.258 112.549C181.268 112.504 181.276 112.449 181.286 112.377L181.315 112.212C181.319 112.17 181.327 112.128 181.337 112.087C181.355 111.987 181.374 111.887 181.396 111.765C181.408 111.694 181.421 111.62 181.437 111.545C181.482 111.31 181.537 111.051 181.592 110.786C181.61 110.704 181.629 110.619 181.649 110.537C181.669 110.455 181.696 110.337 181.722 110.237C181.738 110.176 181.751 110.117 181.769 110.057C181.814 109.877 181.863 109.702 181.916 109.536C182.308 108.236 182.781 105.96 182.781 105.96L185.643 98.436L185.676 98.346L185.766 98.52C186.489 99.9418 186.908 101.498 186.999 103.09C187.156 104.244 187.238 105.407 187.246 106.572C187.266 107.984 187.359 109.393 187.524 110.795C187.524 110.795 187.916 115.786 187.916 116.002C188.063 117.572 188.33 119.127 188.715 120.656C188.834 121.537 188.66 122.432 188.221 123.205C188.148 124.777 188.169 126.352 188.284 127.922C188.284 127.922 187.822 131.496 187.728 132.235C187.708 132.411 187.669 132.707 187.628 133.07L187.865 132.958L187.898 132.94C191.033 131.434 194.139 129.84 197.129 128.117L197.154 123.391C197.268 122.427 197.259 121.452 197.125 120.491C196.88 119.66 196.631 118.056 196.968 117.623C197.305 117.19 197.001 115.19 197.001 115.19C197.001 115.19 197.001 110.967 197.462 109.921C197.922 108.875 197.772 102.246 197.772 102.246L197.894 97.902C197.894 97.902 198.899 96.943 198.661 91.941C198.636 91.408 198.596 90.829 198.541 90.198C198.37 88.31 198.198 86.598 198.041 85.121C198.027 84.994 198.014 84.868 198 84.747C197.984 84.582 197.965 84.42 197.949 84.261C197.913 83.926 197.877 83.604 197.842 83.298C197.83 83.208 197.82 83.12 197.811 83.031C197.76 82.5917 197.712 82.1866 197.668 81.816C197.652 81.671 197.633 81.528 197.617 81.393C197.591 81.193 197.568 81.001 197.546 80.819C197.543 80.7757 197.537 80.7326 197.528 80.69C197.524 80.6145 197.515 80.5393 197.501 80.465C197.401 79.665 197.338 79.228 197.338 79.228H197.311L194.212 79.255L187.45 79.32H187.25L183.722 79.353H183.506L181.813 79.371H181.525L177.998 79.404H177.784L176.335 85.375L173.378 92.156C173.378 92.156 173.334 92.899 173.23 93.624V93.667C173.232 93.6913 173.228 93.7158 173.218 93.738C173.208 93.7739 173.202 93.8108 173.2 93.848C173.159 94.1772 173.075 94.4995 172.951 94.807C172.851 95.0213 172.784 95.2491 172.751 95.483C172.712 95.7314 172.697 95.9828 172.706 96.234V96.275C172.706 96.275 172.471 97.343 172.333 98.253C172.308 98.427 172.284 98.596 172.27 98.753C172.243 98.9431 172.234 99.1353 172.243 99.327C172.254 99.5233 172.246 99.7201 172.221 99.915C172.217 99.9875 172.209 100.06 172.196 100.131C172.096 100.852 171.906 101.66 171.906 101.66L171.349 107.024C171.35 107.03 171.35 107.036 171.349 107.042V107.266C171.351 107.313 171.347 107.361 171.337 107.407C171.337 107.534 171.317 107.685 171.304 107.862C171.304 107.929 171.3 107.996 171.292 108.062C171.294 108.124 171.29 108.186 171.28 108.248V108.348C171.281 108.4 171.278 108.452 171.27 108.503C171.265 108.553 171.265 108.602 171.27 108.652V108.791C171.254 109.079 171.235 109.391 171.221 109.707V110.007C171.223 110.107 171.219 110.207 171.207 110.307V112.318C171.21 112.537 171.225 112.756 171.254 112.973C171.274 113.118 171.289 113.267 171.299 113.42V114.639C171.25 115.313 171.158 115.86 171.144 115.947V116.131C171.144 116.18 171.156 116.243 171.162 116.311V116.411C171.161 116.449 171.165 116.488 171.174 116.525C171.186 116.564 171.174 116.562 171.174 116.584C171.174 116.655 171.186 116.727 171.194 116.804C171.202 116.881 171.21 116.963 171.217 117.045L171.229 117.2C171.229 117.274 171.245 117.353 171.251 117.429V117.507C171.251 117.56 171.263 117.607 171.267 117.666L171.285 117.907C171.285 117.96 171.297 118.015 171.301 118.068V118.15L171.327 118.468C171.326 118.521 171.329 118.573 171.337 118.625C171.337 118.707 171.349 118.792 171.357 118.87C171.365 118.948 171.357 119.05 171.371 119.133C171.381 119.212 171.385 119.292 171.383 119.372C171.403 119.586 171.403 119.801 171.383 120.015C171.254 120.526 171.152 121.043 171.077 121.564C171.077 121.625 171.059 121.686 171.053 121.748C171.05 121.785 171.05 121.821 171.053 121.858L171.041 122.005C171.041 122.123 171.027 122.242 171.027 122.358C171.023 122.607 171.052 122.856 171.115 123.097C171.169 123.311 171.205 123.528 171.223 123.748C171.239 123.873 171.249 124.007 171.256 124.14C171.263 124.273 171.268 124.418 171.274 124.562V124.846C171.286 125.777 171.235 126.667 171.235 126.667C171.235 126.675 171.235 126.683 171.235 126.691V126.707C171.255 127.099 171.435 130.191 171.627 131.23C171.661 131.414 171.684 131.6 171.696 131.787C171.695 131.844 171.698 131.901 171.706 131.958C171.72 132.561 171.674 133.164 171.567 133.758C171.486 134.562 171.359 135.362 171.187 136.152C170.977 136.468 170.879 136.846 170.911 137.224V137.24C170.944 138.067 171.311 138.845 171.928 139.396L172.148 139.616C173.065 139.289 173.974 138.947 174.882 138.6C175.364 138.414 175.845 138.228 176.326 138.035C177.512 137.568 178.688 137.086 179.854 136.588L179.928 136.546Z" fill="#3F3D56"/>
<path d="M196.086 43.936L191.523 48.8079C191.523 48.8079 185.671 46.456 186.287 45.671C186.516 44.9009 186.538 44.0841 186.35 43.303C186.134 41.596 185.672 39.629 185.672 39.629C185.672 39.629 195.899 37.9649 195.036 39.6919C194.759 40.3423 194.736 41.0724 194.971 41.7389C195.223 42.5261 195.6 43.2678 196.086 43.936Z" fill="#A5636D"/>
<path opacity="0.1" d="M195.038 39.6841C194.724 40.3131 194.573 40.3741 194.77 41.0561C193.433 42.4911 191.732 44.0611 189.618 44.0611C188.485 44.0631 187.367 43.8012 186.353 43.2961C186.137 41.5891 185.676 39.6221 185.676 39.6221C185.676 39.6221 195.901 37.9571 195.038 39.6841Z" fill="black"/>
<path d="M196.95 36.541C196.981 39.1822 195.59 41.636 193.309 42.9655C191.027 44.2951 188.208 44.2951 185.926 42.9655C183.645 41.636 182.254 39.1822 182.285 36.541C182.285 36.5057 182.285 36.4703 182.285 36.435C182.304 33.8145 183.719 31.4031 185.997 30.1092C188.275 28.8153 191.07 28.8356 193.329 30.1622C195.588 31.4889 196.968 33.9205 196.949 36.541H196.95Z" fill="#A5636D"/>
<path opacity="0.1" d="M198.01 84.93C197.031 84.93 193.805 84.965 190.192 85.022H190.147L188.953 85.042H188.916C184.631 85.111 180.408 84.274 178.712 84.432C175.107 84.771 180.006 81.099 180.006 81.099C182.692 81.7508 185.454 82.0305 188.216 81.93L189.253 81.875C192.041 81.8013 194.816 81.4631 197.54 80.865C197.66 81.823 197.834 83.209 198.01 84.93Z" fill="black"/>
<path d="M198.01 84.7452C197.031 84.7452 193.805 84.7782 190.192 84.8372H190.147L188.953 84.8572H188.916C184.631 84.9262 180.408 84.0892 178.712 84.2472C175.107 84.5842 180.006 80.9142 180.006 80.9142C182.692 81.566 185.455 81.8449 188.216 81.7432L189.253 81.6902C192.041 81.6155 194.815 81.2773 197.54 80.6802C197.66 81.6382 197.834 83.0282 198.01 84.7452Z" fill="#5F5D7E"/>
<path opacity="0.1" d="M187.64 45.977L181.971 48.627L177.599 82.459C177.599 82.459 180.186 81.283 181.665 82.028C183.144 82.773 187.703 82.091 187.703 82.091C187.703 82.091 191.034 81.891 191.522 82.275C192.01 82.659 197.809 80.734 197.809 80.734C197.809 80.734 198.855 78.391 198.053 78.023C197.252 77.655 198.3 74.01 198.3 74.01L197.809 49.602L196.829 46.465L194.18 44.865L191.47 47.021L190.177 47.207L187.64 45.977Z" fill="black"/>
<path d="M187.64 45.601L181.973 48.251L177.6 82.0909C177.6 82.0909 180.187 80.915 181.666 81.66C183.146 82.405 187.704 81.7209 187.704 81.7209C187.704 81.7209 191.035 81.537 191.523 81.905C192.011 82.273 197.81 80.364 197.81 80.364C197.81 80.364 198.856 78.023 198.054 77.653C197.253 77.283 198.301 73.6459 198.301 73.6459L197.81 49.238L196.83 46.101L194.181 44.501L191.471 46.6569L190.178 46.8409L187.64 45.601Z" fill="#E7EFFD"/>
<path opacity="0.1" d="M187.555 47.1732C187.555 47.1732 189.189 49.1142 189.154 49.5162C189.119 49.9182 189.062 50.8712 189.062 50.8712L187.84 53.3712C187.84 53.3712 187.162 56.4842 187.162 57.1312C187.162 57.7782 186.084 63.3862 186.084 63.3862L184.791 72.0122L183.156 83.3202L184.82 86.1862L186.791 84.5222L189.407 64.3702L189.962 60.3942C189.962 60.3942 190.549 53.2452 190.549 52.5062C190.485 51.6067 190.371 50.7115 190.211 49.8242C190.457 48.7574 191.239 47.8945 192.276 47.5442C193.939 47.1132 192.152 47.4502 192.152 47.4502L191.197 46.6802L190.365 47.0192C190.365 47.0192 188.046 46.3102 187.555 47.1732Z" fill="black"/>
<path d="M187.368 46.9891C187.368 46.9891 189 48.9301 188.967 49.3301C188.934 49.7301 188.873 50.6871 188.873 50.6871L187.641 53.1871C187.641 53.1871 186.963 56.2981 186.963 56.9451C186.963 57.5921 185.885 63.2021 185.885 63.2021L184.586 71.8281L182.961 83.1342L184.624 86.0001L186.595 84.3361L189.211 64.1851L189.766 60.2091C189.766 60.2091 190.354 53.0602 190.354 52.3192C190.289 51.4204 190.176 50.5258 190.015 49.6392C190.256 48.57 191.039 47.7046 192.078 47.3571C193.749 46.9261 191.956 47.2651 191.956 47.2651L190.999 46.4951L190.169 46.8341C190.169 46.8341 187.859 46.1251 187.368 46.9891Z" fill="#009B84"/>
<path opacity="0.1" d="M186.29 43.752C186.29 43.752 186.043 43.9359 185.982 45.1689C185.787 46.5281 185.477 47.8685 185.058 49.176C185.058 49.176 188.261 46.9569 189.865 47.2039L186.29 43.752Z" fill="black"/>
<path d="M186.29 43.3821C186.29 43.3821 186.043 43.5681 185.982 44.7991C185.786 46.1582 185.477 47.4985 185.058 48.8061C185.058 48.8061 188.261 46.587 189.865 46.834L186.29 43.3821Z" fill="#E7EFFD"/>
<path opacity="0.1" d="M195.04 42.7661L189.996 47.2041C191.654 48.1611 193.259 49.2084 194.803 50.3411C195.358 50.9511 195.912 44.3011 195.912 44.3011L195.04 42.7661Z" fill="black"/>
<path d="M195.225 42.396L190.173 46.834C191.83 47.7911 193.435 48.8383 194.978 49.971C195.532 50.581 196.087 43.929 196.087 43.929L195.225 42.396Z" fill="#E7EFFD"/>
<path opacity="0.1" d="M186.466 43.752C186.466 43.752 185.911 43.474 185.389 44.275C185.004 44.7992 184.482 45.2063 183.88 45.451C183.88 45.451 178.272 46.345 178.057 47.084L175.439 47.237C175.439 47.237 174.514 47.349 174.427 49.309C174.34 51.269 173.839 51.434 173.839 51.434C173.312 52.3206 172.978 53.3089 172.86 54.334C172.887 54.9458 172.564 55.52 172.027 55.814L175.885 65.82C175.885 65.82 176.008 69.95 175.298 71.46C174.587 72.97 173.264 79.66 173.264 79.66C173.264 79.66 173.818 79.537 173.786 79.907C173.754 80.277 173.109 84.314 173.109 84.314C173.035 85.0504 172.87 85.7747 172.617 86.47C172.377 87.6046 172.263 88.7623 172.278 89.922L171.77 92.022C171.77 92.022 172.946 94.641 174.729 94.271C176.512 93.901 179.749 86.906 179.749 86.906L181.812 79.357L183.411 71.898L183.874 66.844L184.613 55.656L185.691 48.256C185.691 48.256 186.906 44.276 186.466 43.752Z" fill="black"/>
<path d="M186.289 43.3821C186.289 43.3821 185.734 43.1061 185.212 43.9071C184.827 44.4316 184.304 44.8388 183.701 45.0831C183.701 45.0831 178.095 45.9771 177.88 46.7161L175.262 46.8711C175.262 46.8711 174.337 46.9951 174.245 48.9351C174.153 50.8751 173.657 51.0621 173.657 51.0621C173.131 51.9492 172.797 52.9373 172.678 53.9622C172.706 54.5732 172.384 55.1468 171.847 55.4401L175.692 65.4501C175.692 65.4501 175.814 69.5801 175.104 71.0901C174.393 72.6001 173.072 79.2902 173.072 79.2902C173.072 79.2902 173.626 79.1661 173.594 79.5371C173.562 79.9081 172.917 83.9441 172.917 83.9441C172.843 84.6805 172.678 85.4048 172.425 86.1002C172.185 87.2348 172.071 88.3925 172.086 89.5521L171.596 91.6571C171.596 91.6571 172.772 94.2761 174.553 93.9071C176.334 93.5381 179.575 86.5402 179.575 86.5402L181.638 78.9911L183.237 71.5421L183.698 66.4882L184.439 55.3021L185.517 47.9022C185.517 47.9022 186.721 43.9111 186.289 43.3821Z" fill="#65617D"/>
<path opacity="0.1" d="M166.512 67.2361L164.713 68.4691C163.142 68.5125 161.572 68.381 160.03 68.0771L159.03 67.636L158.83 67.5481L159.036 67.6131C159.829 67.897 160.69 67.9277 161.501 67.701C164.031 66.85 163.75 62.6731 163.656 61.7281C163.656 61.6682 163.649 61.6085 163.636 61.55C163.636 61.5461 163.636 61.5421 163.636 61.5381L163.652 61.5611C163.686 61.6188 163.725 61.6733 163.768 61.7241C163.804 61.7664 163.842 61.8065 163.882 61.8441L164.774 63.6301V63.704L166.512 67.2361Z" fill="black"/>
<path d="M172.705 55.1909L171.842 55.4379L171.718 57.202C171.072 57.1378 170.496 57.6057 170.425 58.251C170.305 58.8898 170.042 59.493 169.655 60.015C169.655 60.015 167.956 61.432 167.868 62.634L166.819 63.2809C166.819 63.2809 164.385 62.7259 163.83 61.7399C163.83 61.7399 164.94 69.6909 159.025 67.7499C159.025 67.7499 165.649 70.6499 165.957 71.0499C167.116 72.0528 168.755 72.2829 170.146 71.6379C171.199 71.1251 172.007 70.2169 172.395 69.111C173.074 68.1975 173.691 67.2401 174.243 66.2449C174.304 65.8739 175.692 65.4449 175.692 65.4449L178.34 59.0369L172.705 55.1909Z" fill="#65617D"/>
<path opacity="0.1" d="M194.331 46.4659L195.225 42.3979C195.381 42.9898 195.652 43.5448 196.024 44.0309C196.434 44.3389 197.349 45.048 197.349 45.048C197.916 45.3265 198.516 45.5341 199.134 45.666C200.268 45.8166 201.371 46.1474 202.401 46.6459C202.709 46.9789 203.941 46.738 203.941 46.738C203.941 46.738 204.958 47.077 205.851 47.293C206.745 47.509 207.176 48.9929 206.99 49.5729C206.839 50.1648 207.001 50.7928 207.421 51.2369C207.715 51.7143 207.904 52.2488 207.975 52.8049C208.429 52.9527 208.806 53.2742 209.024 53.699C209.222 54.3995 209.295 55.1291 209.24 55.8549L204.651 62.324C204.692 63.3423 204.65 64.3623 204.527 65.374C204.343 65.929 205.174 75.3599 205.174 75.3599L206.128 91.5699C205.638 91.9991 205.124 92.3997 204.588 92.77C204.31 92.894 204.033 87.038 204.033 86.822C204.033 86.606 196.918 76.158 196.918 76.158C196.531 75.5685 196.21 74.938 195.961 74.278C195.961 73.939 195.068 70.8279 195.068 70.8279L193.717 64.8279L194.331 46.4659Z" fill="black"/>
<path d="M209.623 55.511C209.623 55.723 209.611 55.864 209.611 55.864L205.024 62.333C205.066 63.352 205.025 64.3726 204.902 65.385C204.794 65.707 205.029 69.023 205.247 71.746C205.402 73.706 205.546 75.369 205.546 75.369L205.946 82.246L206.495 91.581C206.005 92.0097 205.492 92.4104 204.957 92.781C204.681 92.905 204.402 87.049 204.402 86.831C204.402 86.613 197.281 76.165 197.281 76.165C196.894 75.5747 196.574 74.9436 196.326 74.283C196.326 73.944 195.433 70.831 195.433 70.831L194.078 64.823L194.694 46.454L195.217 42.386C195.544 42.974 195.939 43.5219 196.392 44.019C196.798 44.325 197.715 45.036 197.715 45.036C198.283 45.3145 198.883 45.5217 199.502 45.653C200.636 45.8037 201.739 46.1345 202.769 46.633C203.078 46.966 204.309 46.725 204.309 46.725C204.309 46.725 205.325 47.064 206.217 47.28C207.11 47.496 207.542 48.98 207.358 49.56C207.206 50.1519 207.368 50.7804 207.789 51.224C208.082 51.7016 208.271 52.236 208.343 52.792C208.797 52.9404 209.174 53.2616 209.392 53.686C209.575 54.2763 209.653 54.8938 209.623 55.511Z" fill="#65617D"/>
<path opacity="0.1" d="M176.332 138.022C175.852 138.222 175.37 138.4 174.888 138.587C173.377 138.146 171.966 137.626 171.966 137.626C173.428 137.68 174.885 137.813 176.332 138.026V138.022Z" fill="black"/>
<path opacity="0.1" d="M190.911 121.569C190.911 121.569 194.578 122.432 194.793 123.018L190.911 121.569Z" fill="black"/>
<path opacity="0.1" d="M176.771 124.219C176.771 124.219 174.86 124.774 176.71 125.883C178.56 126.992 176.771 124.219 176.771 124.219Z" fill="black"/>
<path opacity="0.1" d="M185.242 94.5941C185.458 94.5941 188.816 93.4851 189.986 93.9781C190.824 94.2917 191.711 94.4581 192.606 94.4701L185.242 94.5941Z" fill="black"/>
<path opacity="0.1" d="M185.685 98.1231L185.652 98.4291L182.78 105.945C182.78 105.945 182.317 108.225 181.915 109.519C181.663 110.399 181.463 111.292 181.315 112.195L183.862 96.4221L185.685 98.1231Z" fill="black"/>
<path d="M190.147 84.8371L188.953 84.8571H188.917L188.216 81.7501C188.559 81.7341 188.907 81.7171 189.254 81.6951L190.147 84.8371Z" fill="#3F3D56"/>
<path d="M204.681 81.0671L203.914 81.7001L201.361 83.8112C201.361 83.8112 194.43 87.5111 192.522 83.9951C190.838 80.8951 198.696 78.6951 200.589 78.2081C200.846 78.1431 200.989 78.1082 200.989 78.1082L204.681 81.0671Z" fill="#A5636D"/>
<path opacity="0.1" d="M175.078 50.7781C175.078 50.7781 176.433 51.3961 176.74 52.2581C177.047 53.1201 175.078 50.7781 175.078 50.7781Z" fill="black"/>
<path opacity="0.1" d="M170.887 60.0251C170.887 60.0251 168.915 62.4252 169.711 63.3582C170.507 64.2912 170.887 60.0251 170.887 60.0251Z" fill="black"/>
<path opacity="0.1" d="M206.129 52.135C206.129 52.135 204.28 52.319 204.218 53.923L206.129 52.135Z" fill="black"/>
<path opacity="0.1" d="M189 77.406C189.2 77.222 193.436 70.937 194.422 71.49L189 77.406Z" fill="black"/>
<path opacity="0.1" d="M196.95 36.5402C196.951 37.7482 196.653 38.9376 196.082 40.0021H196.029C195.564 39.9021 195.324 39.3632 194.969 39.0222C194.521 38.5969 193.853 38.5032 193.305 38.7891C192.755 39.1183 192.438 39.7314 192.489 40.3712C192.254 39.3912 192.328 38.3341 192.097 37.3461C191.866 36.3581 191.178 35.3561 190.234 35.3391C189.826 35.3391 189.352 35.4902 189.058 35.1842C188.88 35.0002 188.844 34.7101 188.711 34.4841C188.036 33.3921 185.981 33.9451 185.143 34.5061C184.243 35.2251 183.289 35.8721 182.288 36.4411C182.317 32.3901 185.623 29.1299 189.673 29.1591C193.722 29.1884 196.981 32.4961 196.952 36.5471L196.95 36.5402Z" fill="black"/>
<path d="M188.71 34.2911C188.843 34.5141 188.879 34.8051 189.057 34.9911C189.351 35.2911 189.825 35.138 190.233 35.146C191.177 35.162 191.867 36.163 192.096 37.151C192.325 38.139 192.251 39.1901 192.488 40.1761C192.438 39.5368 192.755 38.9246 193.305 38.596C193.852 38.3098 194.52 38.4035 194.967 38.829C195.322 39.166 195.554 39.7071 196.029 39.8091C196.504 39.9111 196.943 39.4601 197.111 38.9701C197.229 38.464 197.318 37.9515 197.376 37.435C197.704 36.5203 198.097 35.63 198.551 34.771C198.965 33.659 198.954 32.4335 198.52 31.329C198.289 30.741 197.946 30.229 197.711 29.651C197.358 28.773 197.264 27.783 196.833 26.946C196.117 25.5473 194.487 24.8812 192.997 25.378C192.327 25.631 191.744 26.1191 191.064 26.3371C190.13 26.529 189.164 26.5088 188.238 26.2781C187.297 26.05 186.304 26.2224 185.495 26.7541C184.623 27.4681 184.383 28.8081 183.564 29.5931C183.219 29.9221 182.793 30.1321 182.43 30.4361C182.031 30.7284 181.796 31.1928 181.795 31.6871C181.85 32.3261 182.475 32.9061 182.244 33.4961C182.161 33.6678 182.044 33.8211 181.901 33.9471C181.215 34.6674 180.705 35.5363 180.41 36.4861C182.06 37.0021 183.843 35.1861 185.134 34.3301C185.982 33.7551 188.037 33.2001 188.71 34.2911Z" fill="#4C3E42"/>
<path opacity="0.1" d="M204.681 81.067L203.915 81.7C202.889 80.4533 201.731 79.3208 200.462 78.322L200.582 78.2059C200.839 78.1409 200.982 78.106 200.982 78.106L204.681 81.067Z" fill="black"/>
<path d="M205.421 79.9319C205.421 79.9319 205.146 80.618 204.861 81.212C204.576 81.806 204.273 82.3429 204.249 81.9059C204.218 81.0409 200.645 78.1439 200.645 78.1439L201.129 77.674L201.692 77.127L205.421 79.9319Z" fill="#E7EFFD"/>
<path opacity="0.1" d="M205.544 75.3711L205.944 82.248C204.988 80.76 202.36 76.9481 200.671 77.0671L204.77 72.3671C204.941 72.1787 205.098 71.9782 205.241 71.7671C205.397 73.7141 205.544 75.3711 205.544 75.3711Z" fill="black"/>
<path opacity="0.1" d="M205.421 79.9319C205.421 79.9319 205.146 80.618 204.861 81.212C203.787 79.738 202.313 77.999 201.137 77.674L201.7 77.127L205.421 79.9319Z" fill="black"/>
<path d="M208.502 54.9951L209.612 55.8582C209.612 55.8582 211.46 55.8891 211.644 57.4261C211.873 58.4347 212.572 59.2718 213.523 59.6761C213.523 59.6761 214.787 60.9391 214.787 61.5251C214.787 62.1111 215.741 63.1581 215.741 63.2501C215.741 63.3421 216.666 65.2222 216.541 65.5612C216.416 65.9002 217.521 67.3801 217.188 67.9351C216.909 68.4328 216.663 68.9475 216.449 69.4761C215.863 70.6648 215.127 71.7737 214.26 72.7761C212.795 74.343 211.418 75.9888 210.133 77.7061C210.133 77.7061 206.498 81.8971 206.498 83.1951C206.498 83.1951 202.956 77.2771 200.86 77.4321L204.959 72.7171C204.959 72.7171 205.666 71.9471 205.697 71.4841C205.728 71.0211 207.669 68.8941 208.596 68.8021C208.596 68.8021 208.749 67.5381 208.349 67.5081C207.949 67.4781 207.611 66.4911 207.611 66.4911C207.611 66.4911 204.899 63.2862 204.868 61.2512C204.837 59.2162 208.502 54.9951 208.502 54.9951Z" fill="#65617D"/>
<path opacity="0.1" d="M210.134 57.9351C210.134 57.9351 207.544 59.8441 208.099 60.4621C208.654 61.0801 210.134 57.9351 210.134 57.9351Z" fill="black"/>
<path opacity="0.1" d="M210.258 65.8172C210.258 65.8172 215.063 64.2762 215.548 65.8172H210.258Z" fill="black"/>
<path opacity="0.1" d="M176.356 57.5591C176.356 57.5591 176.356 64.5851 175.756 65.2791C175.156 65.9731 176.356 57.5591 176.356 57.5591Z" fill="black"/>
<path opacity="0.1" d="M204.126 59.823L205.02 62.334C205.02 62.334 205.375 59.87 204.126 59.823Z" fill="black"/>
<g opacity="0.1">
<path d="M182.354 32.8861C182.579 32.3081 181.989 31.7411 181.911 31.1221C181.833 31.2968 181.799 31.488 181.811 31.6791C181.85 32.1481 182.203 32.5791 182.287 33.0161C182.313 32.9749 182.336 32.9314 182.354 32.8861Z" fill="black"/>
<path d="M192.569 39.5241C192.347 38.5441 192.412 37.5241 192.189 36.5521C191.966 35.5801 191.27 34.5601 190.326 34.5451C189.918 34.5451 189.444 34.6941 189.15 34.3901C188.972 34.2061 188.936 33.9161 188.803 33.6901C188.13 32.5981 186.075 33.1511 185.235 33.7121C183.975 34.5491 182.245 36.3021 180.628 35.9061C180.551 36.0921 180.479 36.2801 180.418 36.4741C182.068 36.9901 183.851 35.1741 185.142 34.3181C185.982 33.7591 188.034 33.2051 188.71 34.2981C188.843 34.5211 188.879 34.8121 189.057 34.9981C189.351 35.2981 189.825 35.1451 190.233 35.1531C191.177 35.1691 191.867 36.1701 192.096 37.1581C192.325 38.1461 192.251 39.1971 192.488 40.1831C192.47 39.9603 192.498 39.7362 192.569 39.5241Z" fill="black"/>
<path d="M197.2 38.368C197.031 38.858 196.592 39.307 196.118 39.207C195.644 39.107 195.413 38.568 195.058 38.227C194.609 37.803 193.941 37.7102 193.394 37.996C192.871 38.3079 192.559 38.8792 192.578 39.488C192.701 39.1116 192.959 38.794 193.302 38.596C193.849 38.3098 194.517 38.4035 194.964 38.829C195.319 39.166 195.552 39.707 196.026 39.809C196.501 39.911 196.94 39.46 197.108 38.97C197.195 38.6814 197.252 38.3845 197.277 38.084C197.257 38.18 197.231 38.2748 197.201 38.368H197.2Z" fill="black"/>
<path d="M198.65 34.17C198.187 35.0242 197.793 35.9144 197.474 36.832C197.431 37.032 197.407 37.224 197.384 37.42C197.712 36.5085 198.105 35.6216 198.56 34.766C198.714 34.3556 198.81 33.9253 198.844 33.488C198.797 33.7201 198.732 33.9482 198.65 34.17Z" fill="black"/>
</g>
<path d="M154.13 57.4082C154.682 57.4082 155.13 56.9605 155.13 56.4082C155.13 55.8559 154.682 55.4082 154.13 55.4082C153.577 55.4082 153.13 55.8559 153.13 56.4082C153.13 56.9605 153.577 57.4082 154.13 57.4082Z" fill="#E6E8EC"/>
<path d="M101.544 102.422C102.832 101.535 104.466 101.316 105.942 101.834C105.942 101.834 105.315 103.163 102.532 103.146L101.544 102.422Z" fill="#0B555F"/>
<path d="M101.275 102.513C100.964 104.044 101.401 105.631 102.451 106.788C102.451 106.788 103.431 105.688 102.32 103.136L101.275 102.513Z" fill="#0B555F"/>
<path d="M98.418 100.152C98.418 100.152 98.4979 97.962 103.454 98.498C103.414 99.4826 102.765 100.338 101.828 100.641C100.71 101.263 99.3157 101.063 98.418 100.152Z" fill="#0B555F"/>
<path d="M98.1141 100.143C98.1141 100.143 96.057 100.892 98.0901 105.443C99.0155 105.103 99.6294 104.22 99.6265 103.234C99.8674 101.982 99.2506 100.721 98.1141 100.143Z" fill="#0B555F"/>
<path d="M95.2063 97.1591C95.2063 97.1591 94.7865 93.5771 99.8384 93.7521C99.8384 93.7521 100.32 96.9911 96.1289 97.9881L95.2063 97.1591Z" fill="#0B555F"/>
<path d="M91.7217 93.2301C91.7217 93.2301 92.2565 89.1301 97.3374 90.1521C97.3374 90.1521 97.4903 93.6811 92.5793 94.1691L91.7217 93.2301Z" fill="#0B555F"/>
<path d="M89.1298 89.1292C89.1298 89.1292 90.1294 85.1102 95.1673 86.1162C95.1673 86.1162 94.1167 89.7272 89.4846 89.8412L89.1298 89.1292Z" fill="#0B555F"/>
<path d="M86.6628 85.122C86.6628 85.122 87.6424 80.962 92.4964 82.015C92.4964 82.015 91.039 85.987 87.0096 85.815L86.6628 85.122Z" fill="#0B555F"/>
<path d="M85.0224 81.29C85.0224 81.29 85.6981 76.226 90.2363 77.163C90.2363 77.163 89.1077 81.793 85.3843 82.009L85.0224 81.29Z" fill="#0B555F"/>
<path d="M83.447 76.6421C83.447 76.6421 84.2957 71.5271 88.8908 72.8291C88.8908 72.8291 87.2915 77.6931 83.7929 77.3381L83.447 76.6421Z" fill="#0B555F"/>
<path d="M82.4145 72.3052C82.4145 72.3052 83.8759 67.1672 87.3955 67.1692C87.3955 67.1692 85.9061 72.5932 82.7474 73.3112L82.4145 72.3052Z" fill="#0B555F"/>
<path d="M81.7028 68.0532C81.7028 68.0532 83.2701 61.8762 86.147 62.2372C86.147 62.2372 85.0794 66.9542 81.8357 69.0002L81.7028 68.0532Z" fill="#0B555F"/>
<path d="M81.1949 62.9662C81.1949 62.9662 82.6883 57.8102 85.5062 57.5012C85.5062 57.5012 84.5476 62.5532 81.3079 64.2862L81.1949 62.9662Z" fill="#0B555F"/>
<path d="M80.6722 58.2331C80.6722 58.2331 82.5824 53.0581 84.4446 52.8711C84.4446 52.8711 83.7219 57.9231 80.8901 59.0621L80.6722 58.2331Z" fill="#0B555F"/>
<path d="M80.2684 53.821C80.2684 53.821 81.3519 48.236 83.1962 47.707C83.1962 47.707 83.1162 52.243 80.4723 54.227L80.2684 53.821Z" fill="#0B555F"/>
<path d="M79.3458 48.0641C79.3458 48.0641 80.5393 43.6001 82.0227 42.8711C82.0227 42.8711 81.9227 48.0821 79.7376 49.1281L79.3458 48.0641Z" fill="#0B555F"/>
<path d="M78.6182 44.2861L78.0462 36.5171C78.0462 36.5171 81.0862 42.2801 78.8712 45.6441L78.6182 44.2861Z" fill="#0B555F"/>
<path d="M76.143 36.6393C76.143 36.6393 73.8969 31.0393 73.3991 30.7393C73.3991 30.7393 77.5144 34.2683 77.3185 39.0253L76.143 36.6393Z" fill="#0B555F"/>
<path d="M95.0663 97.1372C95.0663 97.1372 91.4768 96.8082 91.7766 101.854C91.7766 101.854 95.0253 102.246 95.919 98.0392L95.0663 97.1372Z" fill="#0B555F"/>
<path d="M91.5478 93.1011C91.5478 93.1011 87.4195 93.2461 87.9492 98.3941C87.9492 98.3941 91.4368 98.8801 92.3954 94.0381L91.5478 93.1011Z" fill="#0B555F"/>
<path d="M89.1028 89.4672C89.1028 89.4672 85.2873 87.8522 83.0632 92.4802C83.0632 92.4802 86.5808 93.8132 89.4606 90.1862L89.1028 89.4672Z" fill="#0B555F"/>
<path d="M86.5808 85.1633C86.5808 85.1633 82.6713 83.4403 80.5882 87.9633C80.5882 87.9633 84.6385 89.1863 86.9236 85.8583L86.5808 85.1633Z" fill="#0B555F"/>
<path d="M85.0754 81.3982C85.0754 81.3982 81.248 78.0112 78.4381 81.6922C78.4381 81.6922 82.3215 84.4502 85.2753 82.1762L85.0754 81.3982Z" fill="#0B555F"/>
<path d="M83.653 76.5151C83.653 76.5151 79.7985 73.0471 77.0197 76.9341C77.0197 76.9341 81.3029 79.7341 83.8169 77.2651L83.653 76.5151Z" fill="#0B555F"/>
<path d="M82.7903 72.1421C82.7903 72.1421 79.7546 67.7421 76.4259 68.8801C76.4259 68.8801 79.5766 73.5381 82.7983 73.1931L82.7903 72.1421Z" fill="#0B555F"/>
<path d="M81.7858 68.0223C81.7858 68.0223 78.687 62.4553 75.9951 63.5453C75.9951 63.5453 78.2412 67.8283 81.8927 68.9733L81.7858 68.0223Z" fill="#0B555F"/>
<path d="M81.3819 62.669C81.3819 62.669 78.2462 58.315 75.4913 58.969C75.4913 58.969 78.0902 63.405 81.7187 63.952L81.3819 62.669Z" fill="#0B555F"/>
<path d="M80.9821 58.121C80.9821 58.121 78.4931 53.197 76.6218 53.221C76.6218 53.221 77.9213 58.157 80.8581 58.967L80.9821 58.121Z" fill="#0B555F"/>
<path d="M80.3573 53.7081C80.3573 53.7081 77.6144 48.7291 75.6892 48.7931C75.6892 48.7931 77.1626 53.0841 80.2873 54.1581L80.3573 53.7081Z" fill="#0B555F"/>
<path d="M79.7665 48.3582C79.7665 48.3582 77.6954 44.2292 76.096 43.8162C76.096 43.8162 77.2465 48.8992 79.5996 49.4812L79.7665 48.3582Z" fill="#0B555F"/>
<path d="M78.3861 44.1472L73.8669 37.8032C73.8669 37.8032 75.2074 44.1782 79.0558 45.3602L78.3861 44.1472Z" fill="#0B555F"/>
<path d="M75.1854 37.2002C75.1854 37.2002 70.0875 33.9632 69.8946 33.4182C69.8946 33.4182 72.6105 38.1182 77.3216 38.7872L75.1854 37.2002Z" fill="#0B555F"/>
<path d="M74.8286 35.6741C74.8286 35.6741 68.922 30.4141 67.4686 30.4741C70.6361 30.7227 73.4583 32.57 74.9545 35.3741L74.8286 35.6741Z" fill="#0B555F"/>
<path d="M79.7436 49.173L79.5357 49.208C78.1442 40.8671 76.3999 35.9721 74.6077 35.4271L74.6686 35.2271C76.5669 35.8031 78.3172 40.628 79.7436 49.173Z" fill="#0B555F"/>
<path d="M82.0826 69.1572L81.7707 69.1962C81.6708 68.4122 81.5948 67.6162 81.5278 66.8202C80.9631 59.8922 80.2563 53.5392 79.4647 48.7852L79.6376 48.5542C80.4213 53.3162 81.2779 59.8542 81.8437 66.7852C81.9067 67.5872 81.9886 68.3852 82.0826 69.1572Z" fill="#0B555F"/>
<path d="M107.547 106.19C103.242 104.236 99.3082 101.55 95.921 98.251C92.4343 94.937 89.4944 91.0914 87.2106 86.857C84.2845 81.1447 82.4171 74.9494 81.6988 68.571L82.0317 68.712C83.2324 79.7984 88.2385 90.1252 96.1969 97.933C99.5485 101.2 103.44 103.861 107.699 105.8L107.547 106.19Z" fill="#0B555F"/>
<g opacity="0.7">
<path d="M102.452 96.796C103.944 96.3337 105.567 96.6096 106.823 97.539C106.823 97.539 105.829 98.623 103.178 97.776L102.452 96.796Z" fill="#0B555F"/>
<path d="M102.169 96.8C101.417 98.1707 101.363 99.8173 102.024 101.234C102.024 101.234 103.284 100.475 102.985 97.7051L102.169 96.8Z" fill="#0B555F"/>
<path d="M100.142 93.6989C100.142 93.6989 100.871 91.6309 105.433 93.6189C105.102 94.5482 104.228 95.1736 103.242 95.1869C101.992 95.4469 100.722 94.8374 100.142 93.6989Z" fill="#0B555F"/>
<path d="M99.8563 93.614C99.8563 93.614 97.6672 93.714 98.257 98.67C99.24 98.6182 100.087 97.9594 100.379 97.019C100.989 95.8953 100.775 94.5028 99.8563 93.614Z" fill="#0B555F"/>
<path d="M97.9651 89.8889C97.9651 89.8889 98.6319 86.3449 103.401 88.0149C103.401 88.0149 102.901 91.2499 98.6029 90.9559L97.9651 89.8889Z" fill="#0B555F"/>
<path d="M95.808 85.0971C95.808 85.0971 97.5383 81.3431 102.078 83.8311C102.078 83.8311 101.179 87.2361 96.3428 86.2481L95.808 85.0971Z" fill="#0B555F"/>
<path d="M94.5515 80.4091C94.5515 80.4091 96.7066 76.8711 101.214 79.3291C101.214 79.3291 99.1366 82.4661 94.6804 81.2031L94.5515 80.4091Z" fill="#0B555F"/>
<path d="M93.39 75.849C93.39 75.849 95.5571 72.167 99.8873 74.618C99.8873 74.618 97.3144 77.976 93.5149 76.61L93.39 75.849Z" fill="#0B555F"/>
<path d="M92.9642 71.6971C92.9642 71.6971 95.1193 67.0611 99.1617 69.3091C99.1617 69.3091 96.7067 73.3921 93.0871 72.4911L92.9642 71.6971Z" fill="#0B555F"/>
<path d="M92.8412 66.796C92.8412 66.796 95.1732 62.166 99.1726 64.777C99.1726 64.777 96.1998 68.945 92.9651 67.555L92.8412 66.796Z" fill="#0B555F"/>
<path d="M93.1471 62.3439C93.1471 62.3439 96.0709 57.8739 99.4295 58.9229C99.4295 58.9229 96.3938 63.6589 93.1591 63.4039L93.1471 62.3439Z" fill="#0B555F"/>
<path d="M93.7308 58.077C93.7308 58.077 97.0625 52.645 99.7034 53.848C99.7034 53.848 97.2794 58.031 93.5799 59.021L93.7308 58.077Z" fill="#0B555F"/>
<path d="M94.7614 53.068C94.7614 53.068 97.7202 48.593 100.499 49.134C100.499 49.134 98.0831 53.672 94.4755 54.364L94.7614 53.068Z" fill="#0B555F"/>
<path d="M95.667 48.395C95.667 48.395 99.0317 44.021 100.865 44.395C100.865 44.395 98.6718 49.002 95.631 49.249L95.667 48.395Z" fill="#0B555F"/>
<path d="M96.5937 44.062C96.5937 44.062 99.2926 39.053 101.209 39.096C101.209 39.096 99.7824 43.409 96.6667 44.51L96.5937 44.062Z" fill="#0B555F"/>
<path d="M97.4263 38.2909C97.4263 38.2909 99.8913 34.3859 101.525 34.1289C101.525 34.1289 99.8783 39.0749 97.4823 39.4219L97.4263 38.2909Z" fill="#0B555F"/>
<path d="M97.8542 34.4671L99.6182 26.8821C99.6182 26.8821 100.808 33.2821 97.6972 35.8471L97.8542 34.4671Z" fill="#0B555F"/>
<path d="M97.7656 26.431C97.7656 26.431 97.2876 20.415 96.8976 19.981C96.8976 19.981 99.7856 24.581 98.1716 29.057L97.7656 26.431Z" fill="#0B555F"/>
<path d="M97.8402 89.8231C97.8402 89.8231 94.5085 88.4371 93.298 93.3521C93.298 93.3521 96.2788 94.7031 98.396 90.9431L97.8402 89.8231Z" fill="#0B555F"/>
<path d="M95.681 84.92C95.681 84.92 91.6977 83.83 90.6741 88.911C90.6741 88.911 93.8588 90.411 96.2158 86.076L95.681 84.92Z" fill="#0B555F"/>
<path d="M94.4266 80.722C94.4266 80.722 91.2659 78.044 87.7643 81.802C87.7643 81.802 90.7251 84.121 94.5545 81.516L94.4266 80.722Z" fill="#0B555F"/>
<path d="M93.2971 75.8651C93.2971 75.8651 90.0794 73.0561 86.7468 76.7551C86.7468 76.7551 90.2453 79.1271 93.4211 76.6281L93.2971 75.8651Z" fill="#0B555F"/>
<path d="M92.9822 71.8199C92.9822 71.8199 90.3352 67.4459 86.5588 70.1199C86.5588 70.1199 89.4456 73.9109 92.9412 72.6199L92.9822 71.8199Z" fill="#0B555F"/>
<path d="M93.0762 66.7339C93.0762 66.7339 90.4273 62.2779 86.6098 65.1659C86.6098 65.1659 89.8665 69.1159 92.9982 67.5049L93.0762 66.7339Z" fill="#0B555F"/>
<path d="M93.5509 62.3029C93.5509 62.3029 91.9615 57.2029 88.444 57.2939C88.444 57.2939 90.0683 62.6809 93.242 63.3179L93.5509 62.3029Z" fill="#0B555F"/>
<path d="M93.8188 58.0709C93.8188 58.0709 92.5113 51.8329 89.6205 52.0709C89.6205 52.0709 90.4901 56.8288 93.6418 59.0089L93.8188 58.0709Z" fill="#0B555F"/>
<path d="M95.0253 52.8389C95.0253 52.8389 93.326 47.7389 90.5011 47.5459C90.5011 47.5459 91.6616 52.5569 94.9653 54.1579L95.0253 52.8389Z" fill="#0B555F"/>
<path d="M95.9959 48.379C95.9959 48.379 95.0843 42.937 93.29 42.406C93.29 42.406 93.0591 47.506 95.6281 49.154L95.9959 48.379Z" fill="#0B555F"/>
<path d="M96.7206 43.9801C96.7206 43.9801 95.5781 38.4091 93.7219 37.9031C93.7219 37.9031 93.8508 42.4371 96.5207 44.3941L96.7206 43.9801Z" fill="#0B555F"/>
<path d="M97.7401 38.6979C97.7401 38.6979 96.9891 34.1399 95.5841 33.2659C95.5841 33.2659 95.1701 38.4659 97.2441 39.7189L97.7401 38.6979Z" fill="#0B555F"/>
<path d="M97.6732 34.266L95.2452 26.866C95.2452 26.866 94.6285 33.353 97.9511 35.627L97.6732 34.266Z" fill="#0B555F"/>
<path d="M96.6836 26.685C96.6836 26.685 92.7852 22.078 92.7642 21.498C92.7642 21.498 93.9577 26.791 98.251 28.834L96.6836 26.685Z" fill="#0B555F"/>
<path d="M96.7976 25.115C96.7976 25.115 92.7233 18.334 91.3109 17.96C94.2605 19.14 96.4036 21.7452 96.9935 24.868L96.7976 25.115Z" fill="#0B555F"/>
<path d="M97.4786 39.473L97.2706 39.444C98.4236 31.067 98.2076 25.872 96.6626 24.82L96.7826 24.647C98.4156 25.758 98.6566 30.883 97.4786 39.473Z" fill="#0B555F"/>
<path d="M93.7659 59.25L93.456 59.193C93.5969 58.419 93.7559 57.625 93.9318 56.852C95.4522 50.071 96.6747 43.794 97.3234 39.013L97.5563 38.844C96.8976 43.625 95.7571 50.124 94.2367 56.913C94.0657 57.693 93.9048 58.475 93.7659 59.25Z" fill="#0B555F"/>
<path d="M107.064 102.179C103.535 99.0331 100.579 95.2979 98.3269 91.1399C95.9797 86.9386 94.3137 82.3914 93.391 77.6679C92.2968 71.3428 92.3557 64.8719 93.5649 58.5679L93.8408 58.8009C91.69 69.743 93.3984 81.0926 98.6748 90.9159C100.902 95.0333 103.826 98.7326 107.318 101.849L107.064 102.179Z" fill="#0B555F"/>
</g>
<path d="M60.2345 84.1191C59.7738 84.3088 59.2953 84.4519 58.8061 84.5461C57.951 84.7062 57.0831 84.7882 56.2131 84.7911C56.2381 85.0201 56.2581 85.2341 56.2781 85.4281C56.3251 85.9611 56.3531 86.328 56.3531 86.328L55.4344 86.2651L47.8545 85.7471L43.4223 85.0901C43.6376 85.3773 43.8713 85.6502 44.122 85.907C44.3802 86.1804 44.6789 86.4125 45.0077 86.5951C45.0077 86.5951 49.0061 89.835 49.6988 89.865C49.7987 89.865 49.8277 89.965 49.8127 90.118C51.4961 90.118 56.7299 90.3631 55.2775 93.2781C55.0374 93.7979 54.6137 94.2106 54.088 94.4371C52.4087 95.1491 49.8747 93.8681 48.5702 93.0821C48.4433 93.3311 48.3213 93.562 48.2134 93.7601C47.9915 94.1781 47.8375 94.454 47.8375 94.454L47.7066 94.36L40.9813 89.5691L39.5079 88.318C39.0751 88.2981 38.6465 88.2235 38.2324 88.0961L38.0325 88.0331C38.0239 88.0501 38.0165 88.0678 38.0105 88.086C37.9568 88.2389 37.9166 88.3962 37.8906 88.5561V88.6271C37.863 88.8097 37.8447 88.9936 37.8356 89.1781C37.8356 89.3031 37.8256 89.437 37.8256 89.57C37.9561 91.9188 38.3106 94.2497 38.8842 96.531C38.8842 96.531 41.657 103.606 40.6734 105.239C40.6216 105.322 40.5536 105.394 40.4735 105.451C40.1083 105.765 39.8722 106.202 39.8108 106.68C39.6431 108.144 39.7365 109.627 40.0867 111.058C40.0867 111.058 40.0277 111.158 39.9277 111.309C39.7116 111.655 39.4679 111.983 39.1991 112.289C39.1581 112.336 39.1151 112.389 39.0701 112.43C38.9488 112.558 38.8178 112.676 38.6783 112.783C38.7032 112.859 38.7312 112.938 38.7582 113.022C38.7852 113.106 38.8212 113.238 38.8482 113.355C39.0665 114.319 38.981 115.326 38.6033 116.239C38.3465 116.904 38.1804 117.601 38.1095 118.311C37.9822 119.61 38.0157 120.92 38.2095 122.211C38.1805 122.195 38.1545 122.18 38.1255 122.166C35.9584 121.033 33.8219 119.849 31.7161 118.616C31.0983 118.259 30.4856 117.895 29.8758 117.528C29.1261 117.076 28.3794 116.619 27.6357 116.156C26.6561 115.545 25.6762 114.918 24.6959 114.276L24.2371 113.97L24.0612 113.85C23.8123 113.683 23.5674 113.517 23.3205 113.35C22.3074 112.04 21.3817 110.665 20.5496 109.233C20.4107 108.984 20.2847 108.747 20.1808 108.533V108.519L20.1138 108.376L19.8379 108.276C19.3191 108.094 18.9893 107.966 18.9893 107.966C19.2289 107.091 19.3437 106.187 19.3301 105.28C19.3631 103.017 18.4521 100.843 16.8162 99.2801C14.8464 97.5999 13.6166 95.2119 13.3925 92.6321V92.432C13.3916 92.3422 13.3956 92.2524 13.4045 92.1631L13.6314 91.945C13.0557 91.829 12.5149 91.776 12.5149 91.776C12.5149 91.776 14.4861 84.6401 17.8057 82.2591C19.4454 80.9385 20.8004 79.2991 21.7891 77.44C23.5551 74.401 25.5381 71.4934 27.7227 68.74L28.3225 67.985L28.4964 67.763L28.5334 67.7181L28.5804 67.6551C28.4991 67.5324 28.4168 67.4107 28.3335 67.2901L28.2785 67.2101C27.9903 66.8559 27.8319 66.4138 27.8297 65.9571V65.8431C27.8379 65.7651 27.8523 65.6878 27.8726 65.612C27.8795 65.6244 27.8876 65.6362 27.8966 65.6471C28.1765 64.8311 29.2561 64.4711 30.0518 64.0201C31.927 62.9651 32.7267 60.658 33.1285 58.511C33.4404 56.841 33.6983 54.969 34.9918 53.896C35.8264 53.206 36.951 52.9791 37.7956 52.2961C38.2843 51.8641 38.6883 51.3449 38.9871 50.7651C39.1871 50.4321 39.352 50.087 39.5339 49.753C40.3208 48.2145 41.4855 46.9012 42.9185 45.9361C44.3607 44.9801 46.1624 44.7414 47.8036 45.289C48.4173 45.522 48.9791 45.877 49.5668 46.138C49.9297 46.2862 50.3046 46.4029 50.6874 46.487C51.9056 46.6587 53.105 46.9443 54.2699 47.3401C56.0982 48.1521 57.2877 49.9471 58.3683 51.6531C59.1284 52.7439 59.7808 53.906 60.3165 55.123V54.9881C60.5579 55.5585 60.6908 56.1689 60.7083 56.7881C60.7182 57.0521 60.6899 57.3161 60.6243 57.5721C60.439 58.1927 59.9948 58.703 59.4058 58.972L59.3139 59.0171C59.1904 59.0808 59.0636 59.1378 58.934 59.188C58.914 59.296 58.893 59.406 58.8691 59.511C58.8591 59.556 58.8471 59.6031 58.8361 59.6481C58.8111 59.7581 58.7811 59.8661 58.7501 59.9731C58.3321 61.3758 57.5153 62.6266 56.3991 63.573C55.6264 64.2343 54.7334 64.7403 53.7691 65.063C53.7001 65.087 53.6282 65.1041 53.5592 65.1261C53.5009 65.2902 53.4177 65.4444 53.3123 65.583C53.2359 65.6809 53.146 65.7674 53.0454 65.8401C52.9816 65.8828 52.9148 65.9208 52.8455 65.954C52.8288 65.9643 52.8111 65.9727 52.7925 65.979C51.9898 66.2389 51.1107 66.0871 50.4415 65.573C50.4065 65.549 50.3725 65.5221 50.3415 65.4971C50.3384 65.6148 50.326 65.7322 50.3045 65.8481C50.2845 65.9701 50.2715 66.0481 50.2496 66.1481C50.2276 66.2481 50.2206 66.2991 50.2066 66.3721C50.1926 66.4451 50.1826 66.494 50.1716 66.55L50.1476 66.6501C49.7594 68.5424 49.0188 70.3447 47.9645 71.9631C47.8103 72.1951 47.6435 72.4184 47.4647 72.6321L46.9789 73.373V73.4731C47.0224 75.1173 46.5846 76.7384 45.7194 78.1371C45.4544 78.5905 45.1634 79.0282 44.8478 79.448L44.9577 79.513C46.0573 80.138 48.2184 81.25 49.5858 81.156C49.5858 81.156 54.7587 81.8241 55.3585 81.4891C55.4405 81.4421 55.5214 81.507 55.5954 81.646C56.8959 80.796 58.3493 80.2074 59.8746 79.9131C60.3664 79.7857 60.8894 79.8892 61.2956 80.1943C61.7018 80.4995 61.947 80.9731 61.9618 81.4811C62.0926 82.6609 61.368 83.7677 60.2345 84.1191Z" fill="url(#paint1_linear_125_8995)"/>
<path d="M31.916 111.077C32.5867 112.223 32.6908 113.614 32.1979 114.847C31.7872 116.06 31.6241 117.344 31.7181 118.621C31.1003 118.264 30.4876 117.9 29.8778 117.533C29.1281 117.081 28.3814 116.624 27.6377 116.161C26.6581 115.55 25.6782 114.923 24.6979 114.281L24.2391 113.975L24.0632 113.855C24.0477 113.827 24.0285 113.801 24.0062 113.777C23.0118 112.461 22.11 111.078 21.3073 109.637C21.1424 109.331 20.9994 109.049 20.8865 108.79V108.776C20.7173 108.492 20.6376 108.163 20.6576 107.833C20.8016 107.328 21.1448 106.904 21.6082 106.657C22.7367 106.069 24.548 106.612 26.3382 107.476C27.8794 108.255 29.3564 109.156 30.7555 110.168L30.9144 110.284L30.9304 110.296C31.5181 110.714 31.859 110.99 31.859 110.99C31.8796 111.018 31.8986 111.047 31.916 111.077Z" fill="#FBBEBE"/>
<path opacity="0.05" d="M31.6181 110.816C32.2901 111.963 32.3942 113.356 31.9 114.59C31.4892 115.804 31.3261 117.088 31.4202 118.366C30.8038 118.007 30.1903 117.643 29.5799 117.276C28.8289 116.824 28.0822 116.367 27.3398 115.904C26.3602 115.29 25.3806 114.663 24.41 114.022L23.9512 113.716L23.7753 113.596C23.7593 113.568 23.7402 113.542 23.7183 113.518C22.7229 112.203 21.8211 110.82 21.0194 109.378C20.8545 109.072 20.7115 108.79 20.5986 108.531V108.519C20.4294 108.234 20.3497 107.905 20.3697 107.574C20.5143 107.07 20.8573 106.645 21.3203 106.398C22.4488 105.81 24.2601 106.353 26.0503 107.217C27.5915 107.996 29.0685 108.896 30.4676 109.909L30.6265 110.025L30.6425 110.037C31.2303 110.454 31.5711 110.731 31.5711 110.731C31.5711 110.731 31.5841 110.759 31.6181 110.816Z" fill="black"/>
<path d="M38.8332 115.568C38.7763 115.904 38.6838 116.232 38.5573 116.548C38.3404 117.117 38.191 117.709 38.1125 118.312C37.9583 119.593 37.9637 120.888 38.1285 122.168C35.9614 121.035 33.8249 119.851 31.7191 118.618C31.1013 118.261 30.4886 117.897 29.8788 117.53C29.8424 116.772 29.6537 116.028 29.3241 115.344C28.2283 113.901 27.2343 112.383 26.3493 110.802C26.2163 110.567 26.1004 110.339 25.9924 110.124V110.114C25.9514 110.028 25.9125 109.945 25.8745 109.863C25.647 109.496 25.5307 109.07 25.5396 108.638C25.6773 108.174 25.9604 107.766 26.3473 107.474C28.0856 106.204 31.6991 107.923 34.474 109.63L34.5429 109.671C35.0677 109.998 35.5655 110.322 36.0123 110.624L36.2732 110.8C37.4218 111.584 38.1835 112.194 38.1835 112.194C38.3729 112.486 38.525 112.801 38.6363 113.131C38.7018 113.317 38.7562 113.507 38.7992 113.699C38.9345 114.314 38.946 114.949 38.8332 115.568Z" fill="#FBBEBE"/>
<path opacity="0.1" d="M21.3143 109.636C22.8167 110.22 24.3857 110.615 25.9854 110.812C26.104 110.816 26.2226 110.81 26.3402 110.794C28.2009 110.758 30.0618 110.849 31.91 111.067C32.8236 111.147 33.7032 111.232 34.4299 111.306L36.2562 111.506V110.8C35.7484 110.451 35.1567 110.063 34.5279 109.671C31.743 107.95 28.0845 106.191 26.3312 107.471C23.8643 106.279 21.3603 105.707 20.6486 107.828C20.7122 108.478 20.9414 109.1 21.3143 109.636Z" fill="black"/>
<path d="M14.4701 93.2061C14.6753 95.7351 15.8467 98.0877 17.7408 99.7751C21.3583 103.304 19.8159 108.375 19.8159 108.375C19.8159 108.375 24.1272 110.069 25.9864 110.114C26.105 110.118 26.2237 110.112 26.3413 110.096C29.048 110.104 31.7519 110.275 34.438 110.608L36.2643 110.808V95.8081L16.2884 90.9541L14.4801 92.7542C14.467 92.9044 14.4638 93.0554 14.4701 93.2061Z" fill="#5C5C8E"/>
<g opacity="0.1">
<path d="M35.9354 110.62L36.2622 110.653V110.814L34.436 110.614C32.6077 110.43 29.8139 110.167 27.9696 110.091C30.6324 110.124 33.2916 110.301 35.9354 110.62Z" fill="black"/>
<path d="M14.4771 92.7661L16.2854 90.9661L17.4929 91.2581L15.9855 92.7691C15.9759 92.9192 15.9759 93.0699 15.9855 93.2201C16.191 95.7489 17.3623 98.1015 19.2562 99.7891C22.8737 103.318 21.3313 108.389 21.3313 108.389C23.1493 109.112 25.0261 109.678 26.941 110.079C26.7446 110.078 26.5483 110.089 26.3533 110.112C26.2357 110.128 26.117 110.134 25.9984 110.13C24.1392 110.083 19.8279 108.389 19.8279 108.389C19.8279 108.389 21.3703 103.318 17.7528 99.7891C15.8529 98.1069 14.6761 95.7556 14.4681 93.2261C14.4611 93.0727 14.4641 92.919 14.4771 92.7661Z" fill="black"/>
</g>
<path d="M54.3948 82.6081C54.3948 82.6081 60.4364 78.4171 60.8772 82.1891C61.318 85.9611 54.3948 85.435 54.3948 85.435V82.6081Z" fill="#FBBEBE"/>
<path d="M43.9771 79.833C43.9771 79.833 47.2438 81.989 49.052 81.862C49.052 81.862 53.99 82.525 54.5638 82.193C55.1376 81.861 55.4904 86.98 55.4904 86.98L47.3757 86.406L42.1708 85.612C42.1708 85.612 39.5719 84.024 39.5719 82.656C39.5719 81.288 43.9771 79.833 43.9771 79.833Z" fill="#F7CDDD"/>
<path d="M43.9771 79.833C43.9771 79.833 47.2438 81.989 49.052 81.862C49.052 81.862 53.99 82.525 54.5638 82.193C55.1376 81.861 55.4904 86.98 55.4904 86.98L47.3757 86.406L42.1708 85.612C42.1708 85.612 39.5719 84.024 39.5719 82.656C39.5719 81.288 43.9771 79.833 43.9771 79.833Z" fill="#009B84"/>
<path d="M48.7661 90.7401C48.7661 90.7401 56.1122 90.4401 54.4638 93.8591C52.8155 97.2781 47.2527 93.1261 47.2527 93.1261L48.7661 90.7401Z" fill="#FBBEBE"/>
<path d="M41.3792 83.4492C41.3792 83.4492 47.3327 78.9932 46.4951 73.5672C45.6574 68.1412 41.3792 77.7152 41.3792 77.7152V83.4492Z" fill="#5C5C8E"/>
<path d="M43.0285 58.8491C43.0303 61.9143 44.8878 64.6729 47.7266 65.8261C48.0406 65.9577 48.364 66.0654 48.6942 66.1481C49.0449 66.2401 49.4016 66.3069 49.7618 66.3482C50.0207 66.3732 50.2816 66.3872 50.5455 66.3872C51.3875 66.3855 52.2231 66.2404 53.0165 65.9581C56.6371 64.6989 58.7329 60.9182 57.8832 57.1789C57.0335 53.4396 53.5099 50.9368 49.701 51.3671C45.892 51.7975 43.0151 55.0234 43.0205 58.8582L43.0285 58.8491Z" fill="#FBBEBE"/>
<path opacity="0.1" d="M14.4701 93.2061C15.1438 93.3301 15.9775 93.5571 15.9775 93.9061C15.9775 94.4941 25.3837 97.6721 25.3837 97.6721C25.3837 97.6721 25.0308 98.4931 25.9714 99.9071C26.9121 101.321 34.5599 109.436 34.5599 109.436L34.535 109.675L34.435 110.61L33.9682 115.082C35.2155 114.602 36.5199 114.286 37.8486 114.141C38.2093 114.134 38.5502 113.974 38.7872 113.702C38.6749 113.169 38.467 112.661 38.1735 112.202C38.1735 112.202 37.4108 111.602 36.2612 110.808V95.8081L16.2854 90.9541L14.4771 92.7542C14.4651 92.9045 14.4628 93.0555 14.4701 93.2061Z" fill="black"/>
<path d="M13.6234 92.377C13.6234 92.377 15.9745 92.61 15.9745 93.2C15.9745 93.79 25.3806 96.966 25.3806 96.966C25.3806 96.966 25.0278 97.7869 25.9684 99.2009C26.909 100.615 34.5569 108.73 34.5569 108.73L33.9691 114.376C35.2165 113.896 36.5208 113.579 37.8496 113.435C38.2704 113.488 38.7352 113.098 39.1191 112.651C39.4377 112.274 39.7218 111.869 39.9677 111.441C39.9677 111.441 38.9071 106.967 40.3206 105.909C41.734 104.851 38.7922 97.087 38.7922 97.087C38.7922 97.087 37.4617 91.567 37.8536 89.199C37.8786 89.0411 37.9167 88.8855 37.9675 88.734C37.9699 88.7153 37.976 88.6973 37.9855 88.681C38.8242 86.419 47.8465 67.4409 47.8465 67.4409C47.8406 66.9028 47.8025 66.3656 47.7326 65.832C47.7146 65.683 47.6916 65.5319 47.6616 65.3729C47.6161 65.0908 47.5554 64.8115 47.4797 64.536C47.4287 64.356 47.3737 64.183 47.3087 64.018C47.0308 63.301 46.603 62.75 45.9643 62.736C45.3137 62.1514 44.4858 61.802 43.6132 61.744C41.7929 61.6001 39.9671 61.9424 38.3224 62.736C32.7966 65.088 31.5031 65.2059 31.5031 65.2059L28.7243 68.846L28.1525 69.595C26.0615 72.3227 24.1684 75.1967 22.4878 78.195C21.5505 80.0235 20.2562 81.6455 18.6814 82.965C15.5067 85.32 13.6234 92.377 13.6234 92.377Z" fill="#009B84"/>
<path opacity="0.1" d="M34.2351 78.7739C34.2351 78.7739 26.3852 80.7149 23.3395 85.6119L34.2351 78.7739Z" fill="black"/>
<path opacity="0.1" d="M31.8085 87.376C31.8085 87.376 30.3245 97.3459 30.7365 98.0969C31.1485 98.8479 31.8085 87.376 31.8085 87.376Z" fill="black"/>
<path opacity="0.1" d="M32.3398 92.4951C32.9116 93.2441 35.2307 99.0251 35.2307 99.0251L34.5609 108.731L33.9732 114.377C35.2208 113.897 36.5255 113.58 37.8546 113.436C38.2744 113.489 38.7402 113.101 39.1241 112.652C38.5123 109.345 37.2078 102.427 36.9689 102.293C36.6571 102.117 35.0697 96.5571 34.9857 95.0121C34.9018 93.4671 32.6867 89.9861 32.6867 89.9861C32.6867 89.9861 31.7611 91.7451 32.3398 92.4951Z" fill="black"/>
<path opacity="0.1" d="M34.5599 82.965C34.7029 83.406 34.9308 85.965 34.9308 85.965C35.0168 87.5987 36.238 88.9473 37.8546 89.194C37.8796 89.0361 37.9177 88.8805 37.9685 88.729C38.6743 86.729 47.8465 67.436 47.8465 67.436C47.8369 66.4567 47.7138 65.4819 47.4797 64.531C45.4805 63.943 42.3198 64.849 42.3198 64.849C41.4061 64.729 38.4214 70.659 38.4214 70.659C38.4214 70.659 36.4342 75.201 36.2173 75.819C36.1287 76.4777 36.0993 77.143 36.1293 77.807C36.0413 78.16 35.1127 78.4659 34.9808 78.9539C34.8488 79.4419 34.9358 80.407 34.8478 80.583C34.6174 81.3549 34.52 82.1604 34.5599 82.965Z" fill="black"/>
<path d="M35.2646 82.612C35.4095 83.053 35.6344 85.612 35.6344 85.612C35.6858 87.0301 36.6294 88.2599 37.9855 88.6761C38.4394 88.8382 38.9145 88.9331 39.3959 88.958L40.8143 90.1891L47.3617 95.021C47.3617 95.021 49.8037 90.5121 49.1409 90.4831C48.4782 90.4541 44.6598 87.248 44.6598 87.248C43.4842 86.625 42.3197 84.539 41.7769 83.4681C41.8091 83.3391 41.8328 83.2081 41.8479 83.076C42.0848 81.076 47.0228 73.4311 47.0228 73.4311C48.4143 71.5401 49.3248 69.3387 49.6757 67.0171C49.6977 66.9231 49.7107 66.8171 49.7287 66.7251C49.7497 66.5953 49.7627 66.4644 49.7677 66.333C49.8556 64.733 48.6921 64.149 47.3087 64.01C46.59 63.9543 45.8674 63.9768 45.1536 64.0771C44.4394 64.1665 43.7323 64.3054 43.0374 64.493C42.4497 64.417 40.9872 66.877 40.0316 68.62C39.5158 69.565 39.146 70.304 39.146 70.304C39.146 70.304 37.1468 74.848 36.9259 75.466C36.8343 76.1245 36.8049 76.7901 36.8379 77.454C36.75 77.809 35.8214 78.113 35.6914 78.601C35.5615 79.089 35.6444 80.054 35.5565 80.23C35.3266 81.0021 35.228 81.8073 35.2646 82.612Z" fill="#009B84"/>
<path opacity="0.1" d="M27.6677 72.4421C29.0262 73.6069 30.9456 73.8554 32.5557 73.0751C34.1268 72.2832 35.6311 71.3652 37.0539 70.3301C38.0335 69.7421 39.0601 69.2461 40.0207 68.6301C40.1616 68.5381 40.2986 68.4461 40.4325 68.3521C41.5421 67.5681 42.4997 66.5621 43.6462 65.8431C44.4146 65.3346 45.3085 65.0484 46.2292 65.0161C46.6539 65.0119 47.0745 65.1003 47.4617 65.2751C47.5306 65.3038 47.5974 65.3372 47.6616 65.3751C48.0384 65.5932 48.3871 65.8565 48.7002 66.1591C49.023 66.4511 49.3349 66.7591 49.6798 67.0331C49.7018 66.9391 49.7148 66.8331 49.7328 66.7411C49.7538 66.6114 49.7668 66.4805 49.7717 66.3491C50.0306 66.3741 50.2905 66.3881 50.5554 66.3881C51.3994 66.3837 52.2364 66.2353 53.0304 65.9492C53.0333 65.9153 53.0393 65.8818 53.0484 65.8491C53.19 64.3485 53.8994 62.9587 55.0316 61.9641C55.9107 61.5206 56.8332 61.1692 57.7845 60.9152C58.6961 57.7397 57.4315 54.3406 54.6664 52.5341C51.9013 50.7276 48.2819 50.9359 45.7421 53.0477C43.2023 55.1595 42.3356 58.6812 43.6052 61.7311C41.7849 61.5872 39.9591 61.9296 38.3144 62.7231C32.7886 65.0751 31.4952 65.1931 31.4952 65.1931L28.7323 68.8391C29.0769 69.2553 29.3077 69.7539 29.402 70.2861C29.457 71.2851 28.5004 71.9701 27.6677 72.4421Z" fill="black"/>
<path d="M55.0326 61.2681C53.9033 62.264 53.1944 63.652 53.0494 65.1511C53.0013 65.6193 52.8456 66.07 52.5946 66.4681C51.9619 67.2891 50.6884 67.0561 49.8607 66.4681C49.1228 65.7604 48.3195 65.1243 47.4617 64.5681C46.1743 64.118 44.7479 64.3313 43.6482 65.1381C42.5017 65.8571 41.5421 66.8631 40.4325 67.6451C39.361 68.4021 38.1655 68.9451 37.0479 69.6211C35.6271 70.6589 34.1225 71.5766 32.5497 72.3651C30.9407 73.1446 29.0231 72.8969 27.6647 71.7341C28.4974 71.2711 29.454 70.5871 29.389 69.5971C29.3241 68.6071 28.1705 67.8641 28.2485 66.8521C28.3265 65.8401 29.52 65.4371 30.3766 64.9391C32.1699 63.8961 32.9236 61.6061 33.3164 59.4891C33.6163 57.8361 33.8592 55.9891 35.0957 54.9271C35.8954 54.2431 36.971 54.0191 37.7726 53.3431C38.4753 52.6141 39.0384 51.7623 39.434 50.8301C40.1749 49.3185 41.2858 48.0188 42.6636 47.0521C44.0296 46.1085 45.7631 45.8719 47.3317 46.4151C47.9195 46.6441 48.4443 47.0031 49.021 47.2521C50.4515 47.8711 52.0918 47.7891 53.5102 48.4401C55.2565 49.2401 56.3911 51.0201 57.4296 52.7061C58.3173 54.1471 60.0536 56.6971 59.5678 58.5601C59.076 60.4621 56.3281 60.3601 55.0326 61.2681Z" fill="#7C5C5C"/>
<g opacity="0.1">
<path d="M28.2535 66.731C28.2598 66.6535 28.2735 66.5768 28.2945 66.502C28.6705 66.954 28.9273 67.4931 29.0415 68.07C29.0504 68.2042 29.0393 68.339 29.0085 68.47C28.5796 67.9845 28.3153 67.3758 28.2535 66.731Z" fill="black"/>
<path d="M32.2019 70.8371C33.7731 70.0454 35.2774 69.1274 36.7 68.0921C37.8166 67.4121 39.0121 66.8731 40.0847 66.1161C41.1942 65.3321 42.1538 64.3261 43.3004 63.6091C44.4005 62.8032 45.8263 62.5901 47.1138 63.0391C47.9728 63.5936 48.7763 64.2299 49.5128 64.9391C50.3455 65.5391 51.612 65.7701 52.2467 64.9491C52.4986 64.5521 52.6543 64.1018 52.7015 63.6341C52.8435 62.1335 53.5529 60.7439 54.6847 59.7491C55.9842 58.8431 58.7271 58.9491 59.2249 57.0341C59.3079 56.695 59.3299 56.3439 59.2899 55.9971C59.6309 56.7652 59.7319 57.6185 59.5798 58.4451C59.08 60.3561 56.3351 60.2541 55.0376 61.1601C53.9086 62.1571 53.1998 63.5455 53.0544 65.0451C53.0073 65.5126 52.8523 65.9627 52.6016 66.3601C51.9668 67.1811 50.6934 66.9481 49.8587 66.3501C49.1217 65.6413 48.3183 65.0051 47.4597 64.4501C46.1722 64.0011 44.7463 64.2142 43.6462 65.0201C42.4997 65.7371 41.5401 66.7451 40.4305 67.5271C39.359 68.2861 38.1635 68.8271 37.0459 69.5031C35.6255 70.5415 34.1209 71.4594 32.5477 72.2471C30.9383 73.026 29.0206 72.7775 27.6627 71.6141C27.9832 71.4416 28.2876 71.2408 28.5724 71.0141C29.7644 71.3915 31.0522 71.3287 32.2019 70.8371Z" fill="black"/>
</g>
<path d="M159.819 51.592L151.785 43.509C150.99 42.6954 149.902 42.2335 148.764 42.2257C147.627 42.2181 146.533 42.6653 145.727 43.468L95.2762 93.512L73.9449 72.005C72.2955 70.3316 69.6024 70.3123 67.9293 71.962L59.8086 79.999C58.1391 81.6676 58.1208 84.3689 59.7676 86.06L92.1625 118.724C93.8298 120.395 96.5301 120.414 98.221 118.767L159.775 57.651C160.588 56.8557 161.05 55.7685 161.059 54.6308C161.067 53.4932 160.621 52.3993 159.82 51.592H159.819Z" fill="#3ACC6C"/>
<g opacity="0.5">
<path d="M147.713 116.403C147.713 116.403 141.72 116.042 142.422 120.243C142.348 120.68 142.563 121.115 142.955 121.321C142.955 121.321 142.955 121.009 143.569 121.115C143.784 121.152 144.003 121.162 144.221 121.146C144.517 121.128 144.798 121.013 145.021 120.819C145.021 120.819 146.704 120.119 147.361 117.367C147.361 117.367 147.845 116.767 147.826 116.612L146.814 117.045C147.009 117.464 147.035 117.942 146.888 118.38C146.888 118.38 146.855 117.07 146.661 117.102C146.622 117.102 146.137 117.355 146.137 117.355C146.46 118.044 146.512 118.83 146.282 119.555C146.282 119.555 146.452 117.987 145.951 117.455L145.239 117.871C145.624 118.605 145.704 119.462 145.462 120.255C145.54 119.475 145.411 118.687 145.088 117.973L144.443 118.473C144.794 119.145 144.885 119.922 144.698 120.657C144.698 120.657 144.647 118.744 144.306 118.599C144.062 118.805 143.843 119.04 143.656 119.299C143.656 119.299 144.102 120.238 143.827 120.734C143.827 120.734 143.656 119.458 143.517 119.454C143.224 119.885 143.013 120.367 142.896 120.875C142.924 120.341 143.09 119.824 143.38 119.375C143.055 119.437 142.756 119.593 142.519 119.822C142.519 119.822 142.605 119.234 143.519 119.171C143.688 118.923 143.885 118.696 144.106 118.493C143.614 118.451 143.119 118.508 142.649 118.662C143.094 118.273 143.715 118.155 144.271 118.354L144.908 117.834C144.345 117.747 143.771 117.752 143.209 117.85C143.776 117.509 144.472 117.459 145.082 117.715L145.776 117.301C145.242 117.184 144.695 117.136 144.149 117.16C144.741 116.938 145.395 116.948 145.98 117.189L146.479 116.966C146.479 116.966 145.733 116.819 145.514 116.797C145.295 116.775 145.285 116.713 145.285 116.713C145.757 116.635 146.241 116.69 146.684 116.87C147.04 116.745 147.385 116.589 147.713 116.403Z" fill="#0B555F"/>
</g>
<g opacity="0.5">
<path d="M136.961 87.0641C136.961 87.0641 133.919 92.2411 137.982 93.5191C138.337 93.7819 138.82 93.7884 139.181 93.5351C139.181 93.5351 138.909 93.3841 139.275 92.8941C139.405 92.7185 139.514 92.5282 139.6 92.3271C139.715 92.0556 139.739 91.7544 139.669 91.4681C139.669 91.4681 139.812 89.6511 137.657 87.8161C137.657 87.8161 137.341 87.1101 137.196 87.0571L137.121 88.1571C137.583 88.1752 138.02 88.3687 138.344 88.6981C138.344 88.6981 137.168 88.1331 137.101 88.3201C137.089 88.3591 137.087 88.9081 137.087 88.9081C137.847 88.9295 138.57 89.2395 139.109 89.7751C139.109 89.7751 137.793 88.9121 137.085 89.1161L137.132 89.9391C137.961 89.928 138.762 90.245 139.358 90.8211C138.699 90.3989 137.941 90.1575 137.159 90.1211L137.314 90.9211C138.072 90.9103 138.806 91.1823 139.373 91.6841C139.373 91.6841 137.647 90.8631 137.363 91.0961C137.44 91.407 137.551 91.7087 137.692 91.9961C137.692 91.9961 138.733 92.0231 139.048 92.4961C139.048 92.4961 137.836 92.0691 137.767 92.1901C138.018 92.646 138.35 93.0525 138.747 93.3901C138.283 93.1225 137.897 92.7381 137.628 92.2751C137.531 92.5946 137.531 92.9356 137.628 93.2551C137.628 93.2551 137.136 92.9061 137.504 92.0791C137.359 91.8155 137.246 91.5359 137.165 91.2461C136.905 91.665 136.731 92.1314 136.653 92.6181C136.51 92.044 136.687 91.4371 137.116 91.0301L136.944 90.2301C136.611 90.6943 136.355 91.2092 136.186 91.7551C136.139 91.0945 136.41 90.4511 136.916 90.0241L136.861 89.2181C136.515 89.6398 136.225 90.1051 135.999 90.6021C136.068 89.9743 136.374 89.3963 136.853 88.9851L136.88 88.4421C136.88 88.4421 136.411 89.0421 136.293 89.2261C136.175 89.4101 136.115 89.3931 136.115 89.3931C136.258 88.9369 136.526 88.5297 136.888 88.2171C136.947 87.8357 136.971 87.4499 136.961 87.0641Z" fill="#0B555F"/>
</g>
<g opacity="0.5">
<path d="M117.926 45.7579C117.926 45.7579 114.885 50.9369 118.947 52.2129C119.301 52.477 119.785 52.4834 120.146 52.2289C120.146 52.2289 119.874 52.0779 120.246 51.5879C120.376 51.4122 120.484 51.2219 120.569 51.0209C120.685 50.7497 120.709 50.4482 120.638 50.1619C120.638 50.1619 120.783 48.3449 118.626 46.5099C118.626 46.5099 118.31 45.8099 118.165 45.7529L118.09 46.8529C118.552 46.8706 118.989 47.0642 119.312 47.3939C119.312 47.3939 118.137 46.8289 118.072 47.0159C118.058 47.0549 118.058 47.6039 118.058 47.6039C118.817 47.6252 119.539 47.9349 120.078 48.4699C120.078 48.4699 118.762 47.6069 118.054 47.8109L118.103 48.6339C118.932 48.623 119.731 48.94 120.327 49.5159C119.668 49.0945 118.91 48.8532 118.128 48.8159L118.283 49.6159C119.041 49.6053 119.776 49.8781 120.344 50.3809C120.344 50.3809 118.616 49.5579 118.332 49.7929C118.409 50.1041 118.52 50.4059 118.663 50.6929C118.663 50.6929 119.701 50.7199 120.017 51.1929C120.017 51.1929 118.805 50.7659 118.738 50.8869C118.988 51.3436 119.32 51.7503 119.717 52.0869C119.253 51.8201 118.867 51.4364 118.597 50.9739C118.503 51.2898 118.503 51.6261 118.597 51.9419C118.597 51.9419 118.105 51.5929 118.473 50.7559C118.328 50.4923 118.214 50.2127 118.134 49.9229C117.874 50.3418 117.7 50.8082 117.622 51.2949C117.479 50.7205 117.657 50.1133 118.087 49.7069L117.913 48.9069C117.58 49.3708 117.324 49.8859 117.156 50.4319C117.108 49.7714 117.379 49.1277 117.885 48.7009L117.83 47.8949C117.483 48.3166 117.193 48.7819 116.967 49.2789C117.037 48.6516 117.343 48.0743 117.822 47.6639L117.849 47.1189C117.849 47.1189 117.379 47.7189 117.261 47.9029C117.143 48.0869 117.083 48.0699 117.083 48.0699C117.231 47.6128 117.502 47.2057 117.867 46.8939C117.921 46.5178 117.941 46.1376 117.926 45.7579Z" fill="#0B555F"/>
</g>
<g opacity="0.5">
<path d="M133.879 24.389C133.879 24.389 132.654 18.508 128.781 20.289C128.339 20.3322 127.976 20.6554 127.881 21.089C127.881 21.089 128.181 21.016 128.242 21.628C128.263 21.8451 128.31 22.0588 128.381 22.265C128.479 22.5431 128.663 22.7822 128.908 22.947C128.908 22.947 130.021 24.39 132.848 24.3C132.848 24.3 133.556 24.61 133.701 24.551L133.017 23.688C132.664 23.985 132.21 24.1357 131.749 24.109C131.749 24.109 133.004 23.735 132.925 23.554C132.907 23.517 132.543 23.113 132.543 23.113C131.966 23.6076 131.223 23.864 130.464 23.83C130.464 23.83 132.018 23.583 132.406 22.958L131.818 22.38C131.211 22.9454 130.405 23.2477 129.576 23.221C130.35 23.0916 131.075 22.7609 131.68 22.262L131.026 21.772C130.469 22.2862 129.743 22.5771 128.986 22.589C128.986 22.589 130.818 22.036 130.867 21.668C130.603 21.4861 130.318 21.3373 130.018 21.225C130.018 21.225 129.234 21.903 128.68 21.766C128.68 21.766 129.855 21.266 129.834 21.131C129.34 20.9617 128.819 20.8854 128.298 20.906C128.821 20.7928 129.365 20.8179 129.875 20.979C129.731 20.6816 129.503 20.4333 129.218 20.265C129.218 20.265 129.818 20.192 130.108 21.049C130.392 21.1475 130.664 21.2791 130.918 21.441C130.828 20.9523 130.643 20.486 130.373 20.069C130.865 20.3983 131.141 20.9669 131.096 21.557L131.763 22.035C131.699 21.4672 131.543 20.9136 131.301 20.396C131.777 20.8512 132.008 21.5066 131.921 22.16L132.509 22.721C132.483 22.1754 132.385 21.6355 132.219 21.115C132.587 21.6248 132.748 22.2552 132.67 22.879L133.015 23.3C133.015 23.3 132.962 22.541 132.927 22.32C132.892 22.099 132.947 22.075 132.947 22.075C133.148 22.5124 133.224 22.9972 133.165 23.475C133.375 23.8001 133.614 24.106 133.879 24.389Z" fill="#0B555F"/>
</g>
<g opacity="0.5">
<path d="M112.789 133.409C112.789 133.409 111.567 127.528 107.691 129.309C107.25 129.353 106.887 129.676 106.792 130.109C106.792 130.109 107.091 130.036 107.152 130.648C107.174 130.865 107.221 131.079 107.293 131.285C107.391 131.563 107.575 131.802 107.818 131.967C107.818 131.967 108.932 133.41 111.761 133.32C111.761 133.32 112.468 133.63 112.611 133.571L111.929 132.708C111.575 133.005 111.121 133.156 110.66 133.129C110.66 133.129 111.914 132.755 111.836 132.574C111.82 132.537 111.454 132.133 111.454 132.133C110.877 132.628 110.133 132.884 109.375 132.85C109.375 132.85 110.931 132.603 111.317 131.978L110.729 131.39C110.127 131.958 109.322 132.261 108.495 132.229C109.268 132.1 109.994 131.769 110.599 131.27L109.944 130.78C109.389 131.294 108.663 131.585 107.906 131.597C107.906 131.597 109.738 131.046 109.787 130.676C109.523 130.495 109.238 130.346 108.939 130.233C108.939 130.233 108.155 130.911 107.598 130.774C107.598 130.774 108.774 130.274 108.753 130.139C108.259 129.97 107.738 129.893 107.216 129.914C107.74 129.801 108.285 129.826 108.796 129.987C108.651 129.69 108.423 129.442 108.139 129.273C108.139 129.273 108.739 129.2 109.027 130.057C109.312 130.155 109.584 130.287 109.838 130.449C109.749 129.96 109.564 129.494 109.294 129.077C109.785 129.406 110.061 129.975 110.014 130.565L110.684 131.043C110.619 130.475 110.462 129.922 110.219 129.404C110.697 129.859 110.928 130.514 110.842 131.168L111.43 131.729C111.403 131.184 111.305 130.644 111.138 130.124C111.507 130.633 111.669 131.264 111.591 131.888L111.935 132.309C111.935 132.309 111.88 131.55 111.846 131.329C111.811 131.108 111.866 131.086 111.866 131.086C112.066 131.521 112.142 132.004 112.083 132.48C112.294 132.808 112.53 133.119 112.789 133.409Z" fill="#0B555F"/>
</g>
<defs>
<linearGradient id="paint0_linear_125_8995" x1="185.913" y1="139.651" x2="185.913" y2="24.521" gradientUnits="userSpaceOnUse">
<stop stop-color="#808080" stop-opacity="0.251"/>
<stop offset="0.54" stop-color="#808080" stop-opacity="0.122"/>
<stop offset="1" stop-color="#808080" stop-opacity="0.102"/>
</linearGradient>
<linearGradient id="paint1_linear_125_8995" x1="37.2459" y1="122.211" x2="37.2459" y2="45" gradientUnits="userSpaceOnUse">
<stop stop-color="#808080" stop-opacity="0.251"/>
<stop offset="0.54" stop-color="#808080" stop-opacity="0.122"/>
<stop offset="1" stop-color="#808080" stop-opacity="0.102"/>
</linearGradient>
</defs>
</svg>
