<svg width="160" height="151" viewBox="0 0 160 151" fill="none" xmlns="http://www.w3.org/2000/svg">
<path d="M93.1034 141.341C125.702 141.341 152.128 133.786 152.128 124.466C152.128 115.146 125.702 107.591 93.1034 107.591C60.5053 107.591 34.0793 115.146 34.0793 124.466C34.0793 133.786 60.5053 141.341 93.1034 141.341Z" fill="#F5F5F5"/>
<path d="M140.265 58.8198C133.927 65.9088 132.162 75.9842 135.712 84.8078C141.614 100.333 125.594 126.152 125.594 126.152C125.594 126.152 125.763 126.127 126.085 126.071C136.148 124.289 144.647 117.574 148.712 108.191C152.777 98.8086 151.867 88.0109 146.287 79.4428C141.854 72.6558 138.206 64.6928 140.265 58.8198Z" fill="#1CE5AF"/>
<path d="M140.265 58.8198C140.265 58.8198 134.363 71.6448 140.265 82.1078C146.167 92.5708 141.278 121.933 125.594 126.152" stroke="#535461" stroke-width="2"/>
<path d="M158.887 101.138C158.887 101.138 146.956 99.2378 145.868 109.938C144.779 120.638 122.933 122.12 122.933 122.12C122.933 122.12 123.075 122.22 123.342 122.393C141.387 134.246 158.637 129.943 156.038 114.203C155.066 108.352 155.142 102.474 158.887 101.138Z" fill="#0B555F"/>
<path d="M158.887 101.138C158.887 101.138 149.625 103.173 150.386 111.601C151.146 120.029 136.627 130.126 122.926 122.116" stroke="#535461" stroke-width="2"/>
<path opacity="0.128" d="M35.6313 0.479928C33.7761 0.340579 31.9112 0.553311 30.1349 1.10693C25.399 2.81193 23.1535 8.39093 23.884 13.2229C24.6146 18.0549 27.6166 22.2499 30.7315 26.0949C33.8465 29.9399 37.2223 33.7349 38.9261 38.3239C39.9064 40.5834 40.0429 43.1201 39.3109 45.4719C37.9757 49.0009 33.9484 50.9719 30.083 51.3819C26.2175 51.7919 22.3351 50.9929 18.4556 50.7149C15.0226 50.155 11.5432 51.4017 9.2457 54.0149C4.21502 58.7059 0.187673 65.1149 0.839244 71.8339C1.57576 79.4559 8.14742 85.4819 15.3447 88.7119C17.7281 89.7839 20.2484 90.6509 22.3461 92.1809C27.8714 96.2139 29.1126 103.772 28.563 110.445C28.0133 117.118 26.1386 123.797 27.1819 130.412C28.5842 138.329 33.8248 145.032 41.1666 148.3C47.6943 151.19 55.863 151.01 61.6531 146.921C64.3879 144.835 66.702 142.249 68.4726 139.299C71.2693 134.997 73.5454 130.379 75.2532 125.54C76.0616 123.248 76.8211 120.782 78.7069 119.188C79.9277 118.254 81.3312 117.587 82.8262 117.231C87.2742 115.946 91.9602 115.592 96.4492 114.449C100.938 113.306 105.456 111.176 107.897 107.367C111.35 101.962 109.738 95.0489 109.754 88.6899C109.782 74.2019 118.759 61.2299 122.072 47.1109C123.155 42.4949 123.557 37.3879 121.14 33.2719C119.326 30.5188 116.792 28.3168 113.814 26.9059C107.418 23.4729 100.138 21.9449 92.9795 20.4579C83.031 18.3949 70.95 18.1279 63.2391 11.4529C55.846 5.04693 45.7226 0.479928 35.6313 0.479928Z" fill="#B2F4DE"/>
<g opacity="0.5">
<path d="M57.9516 61.0899C57.951 58.4417 57.5366 55.8099 56.7234 53.2899L54.6987 47.0069V46.6959C54.7607 42.6709 51.6258 40.6629 50.4185 40.8809C49.1824 41.1039 45.7526 39.3809 45.7526 39.3809V39.4279C45.5173 39.1571 45.305 38.8671 45.118 38.5609C46.3164 37.6891 47.1122 36.3701 47.3252 34.903C47.5381 33.4359 47.1502 31.9448 46.2493 30.7679C46.6201 30.489 46.9028 30.1092 47.0638 29.6739C47.3058 28.8595 47.1622 27.9791 46.674 27.2839C46.4801 26.9926 46.2538 26.7242 45.9995 26.4839C45.6137 26.1017 45.1924 25.7571 44.7413 25.4549C43.64 24.6319 42.3744 24.0562 41.0307 23.7669C40.7974 23.7118 40.5545 23.7118 40.3212 23.7669C40.1187 23.8489 39.926 23.9532 39.7466 24.0779C38.7435 24.4522 37.6553 24.5365 36.6067 24.3209C35.5414 24.2649 34.2452 24.5639 33.9084 25.5649C33.8351 25.8817 33.7787 26.2021 33.7395 26.5249C33.47 27.2757 33.0519 27.9644 32.5104 28.5499C31.9661 29.1531 31.8027 30.0094 32.0866 30.7709C32.2185 31.0069 32.4234 31.2249 32.4234 31.4949C32.3932 31.6862 32.3364 31.8724 32.2545 32.0479C32.172 32.4833 32.3422 32.928 32.6942 33.1969C32.8395 33.3535 33.0106 33.4841 33.1999 33.5829C33.7346 33.8559 34.3501 33.9409 34.8988 34.1939C35.1706 34.3216 35.42 34.4925 35.6373 34.6999C36.1744 35.2643 36.4625 36.0209 36.4368 36.7999L36.5497 36.8119V36.9119C36.6676 36.9249 36.7925 36.9369 36.9155 36.9419C37.0928 37.2263 37.2955 37.494 37.5211 37.7419C37.4831 37.8859 37.4398 38.0322 37.3911 38.1809C35.2441 39.6467 32.6561 40.3234 30.067 40.0959C26.1326 39.5409 23.883 56.7529 23.883 56.7529C23.7371 57.7371 23.666 58.7309 23.6702 59.7259C23.6532 62.2569 24.1848 65.5699 27.1439 65.0819L28.7169 64.5639V73.0769C28.8371 74.3968 28.6447 75.7264 28.1552 76.9579C27.3697 78.5069 30.6296 77.9579 30.6296 77.9579C30.6296 77.9579 30.7545 78.0879 30.9834 78.3089L30.9104 78.5089L31.0103 78.6089C30.5817 80.0756 30.0037 81.4944 29.2855 82.8429L29.3784 82.8899C29.3195 83.0029 29.2855 83.0589 29.2855 83.0589C29.2855 83.0589 30.4967 83.6779 32.1626 84.4759C33.5017 89.0049 36.4328 99.4949 35.4684 101.493L35.4954 101.55C36.1933 102.983 36.5316 104.564 36.4807 106.157C36.2969 107.966 38.7992 116.186 39.7336 119.171L39.2919 119.26L40.8648 124.923L40.5271 128.588C40.5271 128.588 38.6163 133.696 43.1124 132.697C44.2716 132.546 45.3047 131.89 45.9338 130.904C46.5629 129.918 46.7235 128.705 46.3722 127.589L46.4851 119.259C46.4851 119.259 46.0514 119.018 45.5168 118.786C44.8835 117.197 44.4898 115.523 44.3486 113.818C44.3486 111.709 42.8865 102.601 42.8865 102.601V102.537L42.8785 102.415V102.395C42.8785 102.282 42.8595 102.127 42.8465 101.938V101.928C42.4545 96.8752 42.3528 91.8042 42.5417 86.7399C42.8668 86.5197 43.2049 86.3193 43.5541 86.1399C44.6534 88.9079 47.4695 96.3849 47.2896 99.5219C47.0658 103.403 47.2336 100.356 47.2896 99.8589C47.3066 99.7049 47.3186 99.8909 47.3236 100.308V101.95C47.3236 102.287 47.3236 102.662 47.3116 103.05V103.286C47.3116 103.524 47.3116 103.767 47.2996 104.013C47.2996 104.35 47.2866 104.678 47.2796 105.013C47.2626 105.772 47.2406 106.54 47.2137 107.259C47.2137 107.339 47.211 107.418 47.2057 107.497C47.2003 107.654 47.194 107.808 47.1867 107.959C47.1794 108.11 47.1727 108.257 47.1667 108.401C47.16 108.544 47.1527 108.683 47.1447 108.818C47.1367 108.977 47.1257 109.129 47.1177 109.274L46.5071 109.186L46.3772 110.586C46.1728 112.815 46.4608 115.062 47.2207 117.167C47.4295 117.744 47.5914 118.222 47.6274 118.392C47.7403 118.947 47.6274 122.948 47.6274 122.948C47.6274 122.948 48.3019 128.167 51.4509 127.167C52.7709 126.61 53.6969 125.394 53.8843 123.973C54.2492 122.38 54.113 120.714 53.4945 119.202C52.9222 117.981 52.7199 116.619 52.9129 115.284C53.2803 113.606 53.4686 111.894 53.4745 110.176L53.1268 110.127C53.2135 109.962 53.2919 109.793 53.3616 109.621C53.3616 109.621 53.2487 101.958 54.261 100.959C54.8176 100.409 54.7667 99.0879 54.5988 98.0079C54.3578 96.4449 54.3011 94.8591 54.4299 93.2829C54.4539 92.6836 54.5495 92.0894 54.7147 91.5129C55.0145 90.9259 55.3083 85.0059 53.9942 82.1569L54.264 82.0729L54.222 81.8639L54.264 81.8499C54.4622 82.3791 54.6873 82.8978 54.9386 83.4039C55.0048 83.4558 55.081 83.4935 55.1624 83.5149C58.803 82.8749 58.9499 79.4749 58.7481 77.6149C58.902 77.6889 58.9859 77.7369 58.9859 77.7369L59.3227 72.8429C59.6689 71.9354 59.8247 70.9663 59.7804 69.9959C59.6024 66.9546 58.9865 63.955 57.9516 61.0899ZM53.9382 74.9999C53.6884 72.8689 53.3386 70.8619 53.3386 70.8619L51.6527 64.8619V62.6779L54.327 72.6679L53.9382 74.9999Z" fill="url(#paint0_linear_125_8927)"/>
</g>
<path d="M46.3562 107.76L46.2313 109.132C46.0343 111.312 46.3132 113.509 47.0488 115.57C47.2487 116.135 47.4066 116.601 47.4395 116.77C47.5475 117.313 47.4395 121.22 47.4395 121.22C47.4395 121.22 48.0901 126.32 51.1281 125.344C52.4056 124.79 53.2974 123.604 53.4756 122.222C53.8266 120.666 53.6948 119.04 53.0978 117.561C52.5442 116.366 52.3491 115.036 52.5362 113.732C52.8914 112.092 53.0732 110.418 53.0788 108.74L46.3562 107.76Z" fill="#5A5773"/>
<path d="M43.1024 84.209C43.1024 84.209 47.3316 94.52 47.1148 98.317C46.8979 102.114 47.0608 99.13 47.1148 98.643C47.1894 102.19 47.0806 105.738 46.789 109.274C46.789 109.274 51.2361 112.529 52.9709 108.189C52.9709 108.189 52.863 100.702 53.8373 99.724C54.374 99.187 54.321 97.895 54.1631 96.84C53.9291 95.3144 53.8724 93.7667 53.9942 92.228C54.0131 91.6421 54.1054 91.0609 54.2691 90.498C54.5948 89.847 54.9196 82.467 52.9699 80.405L43.1024 84.209Z" fill="#605D82"/>
<path opacity="0.1" d="M47.3326 109.278C47.6241 105.742 47.7328 102.194 47.6584 98.6468C47.6044 99.1348 47.4405 102.12 47.6584 98.3208C47.8763 94.5218 43.6461 84.2128 43.6461 84.2128L53.1088 80.5708C53.0648 80.5148 53.0199 80.4628 52.9739 80.4138L43.1054 84.2138C43.1054 84.2138 47.3336 94.5248 47.1168 98.3248C46.8999 102.125 47.0628 99.1378 47.1168 98.6508C47.1913 102.198 47.0826 105.746 46.791 109.282C47.8189 110.019 49.0479 110.425 50.3127 110.443C49.2397 110.302 48.2171 109.902 47.3326 109.278Z" fill="black"/>
<path d="M39.4149 117.635L40.9329 123.17L40.6071 126.751C40.6071 126.751 38.7643 131.743 43.1054 130.766C44.2295 130.606 45.2265 129.959 45.832 128.998C46.4376 128.037 46.5905 126.858 46.2503 125.774L46.3583 117.635C45.5947 117.175 44.7438 116.88 43.8599 116.768C43.1014 116.877 39.4149 117.635 39.4149 117.635Z" fill="#5A5773"/>
<path d="M31.9318 81.605C31.9318 81.605 36.9205 97.775 35.7293 100.271C36.4155 101.689 36.7504 103.252 36.7056 104.827C36.4898 106.995 40.1763 118.609 40.1763 118.609L45.5997 117.632C44.9116 115.932 44.474 114.141 44.3006 112.315C44.3006 110.253 42.8905 101.346 42.8905 101.346C42.8905 101.346 41.6983 85.067 43.1084 83.33L31.9318 81.605Z" fill="#605D82"/>
<g opacity="0.1">
<path d="M42.6827 84.6531C41.7833 88.3391 42.7776 101.901 42.7776 101.901C42.7776 101.901 44.1877 110.801 44.1877 112.87C44.3213 114.525 44.6974 116.152 45.3039 117.698L45.5978 117.646C44.9096 115.946 44.472 114.155 44.2986 112.329C44.2986 110.267 42.8885 101.36 42.8885 101.36C42.8885 101.36 41.9771 88.9651 42.6827 84.6531Z" fill="black"/>
<path d="M35.7283 100.27L35.7553 100.326C35.7633 100.27 35.7723 100.211 35.7773 100.157C35.7629 100.195 35.7465 100.233 35.7283 100.27Z" fill="black"/>
<path d="M42.8576 83.865C42.907 83.6779 42.99 83.5014 43.1024 83.344L31.9318 81.605C31.9318 81.605 31.9977 81.816 32.1106 82.192L42.8576 83.865Z" fill="black"/>
</g>
<path d="M57.9596 75.7439C57.9596 75.7439 59.5866 81.8189 54.7068 82.6899C54.6275 82.6694 54.5533 82.6326 54.4889 82.5819C54.4889 82.5819 51.6688 77.047 53.8383 74.877L57.9596 75.7439Z" fill="#A1616A"/>
<path d="M38.0057 35.377C38.0057 35.377 38.3315 39.933 34.7529 42.105C31.1743 44.277 42.3419 50.244 42.3419 50.244L48.199 40.91C48.199 40.91 45.7067 41.232 44.1887 36.895L38.0057 35.377Z" fill="#A1616A"/>
<path opacity="0.1" d="M35.6183 42.428C35.6183 42.428 41.1497 53.928 46.1384 43.079L53.8383 81.279C53.8383 81.279 41.9072 84.97 41.8013 86.706C41.6953 88.442 29.7652 82.257 29.7652 82.257C29.7652 82.257 32.3635 77.481 31.7179 74.552C31.0723 71.623 35.6183 42.428 35.6183 42.428Z" fill="black"/>
<path d="M35.6183 42.21C35.6183 42.21 41.1497 53.71 46.1384 42.861L53.8383 81.061C53.8383 81.061 41.9072 84.752 41.8013 86.488C41.6953 88.224 29.7652 82.039 29.7652 82.039C29.7652 82.039 32.3635 77.263 31.7179 74.334C31.0723 71.405 35.6183 42.21 35.6183 42.21Z" fill="#E1E7EF"/>
<path d="M41.0418 120.674C41.0418 120.674 39.6317 117.527 42.8846 117.527C46.1374 117.527 45.5968 120.349 45.5968 120.349L41.0418 120.674Z" fill="#5A5773"/>
<path d="M48.4159 112.534C48.4159 112.534 47.1167 109.169 50.3686 109.061C53.6204 108.953 51.9955 112.099 51.9955 112.099L48.4159 112.534Z" fill="#5A5773"/>
<path opacity="0.1" d="M45.6508 39.7649C45.6508 39.7649 48.9576 41.4529 50.1478 41.2299C51.338 41.0069 54.4849 43.0739 54.2691 47.1989L56.2288 53.3519C57.0126 55.8189 57.4107 58.3922 57.409 60.9809C57.409 60.9809 60.2291 68.7939 58.7081 72.2669L58.3824 77.0429C56.8208 76.2105 55.0442 75.87 53.2857 76.0659L53.9413 72.1659L51.0072 61.0939L46.1334 49.2649L45.6508 39.7649Z" fill="black"/>
<path d="M45.6508 39.5498C45.6508 39.5498 48.9576 41.2378 50.1478 41.0148C51.338 40.7918 54.4849 42.8588 54.2691 46.9838L56.2288 53.1368C57.0126 55.6038 57.4107 58.1772 57.409 60.7658C57.409 60.7658 60.2291 68.5788 58.7081 72.0518L58.3824 76.8278C56.8208 75.9954 55.0442 75.6549 53.2857 75.8508L53.9363 71.9438L51.0072 60.8758L46.1314 49.0468L45.6508 39.5498Z" fill="#67647E"/>
<path opacity="0.1" d="M51.1282 52.737V65L52.7551 70.861C52.7551 70.861 53.8394 77.261 53.5136 79.218C53.1878 81.175 47.9822 81.606 46.5722 79.977C45.1621 78.348 45.9216 64.452 45.9216 64.452L45.6498 44.109L45.8676 43.458L51.1282 52.737Z" fill="black"/>
<path d="M51.35 52.195V64.462L52.9769 70.323C52.9769 70.323 54.0612 76.723 53.7354 78.68C53.4096 80.637 48.2041 81.068 46.794 79.439C45.3839 77.81 46.1434 63.914 46.1434 63.914L45.8736 43.562L51.35 52.195Z" fill="#67647E"/>
<path opacity="0.1" d="M29.4924 62.3968L32.9631 73.1968L31.3362 77.8088C31.3362 77.8088 39.0361 85.9478 43.9169 82.0408C43.9169 82.0408 44.4595 65.4358 43.3742 61.5288C42.2889 57.6218 37.0844 44.4848 37.0844 44.4848L36.0081 41.0168L30.2609 44.2718L29.4924 62.3968Z" fill="black"/>
<path d="M29.2205 61.8519V72.4829C29.3375 73.7745 29.1517 75.0757 28.6779 76.2829C27.9174 77.8019 31.0643 77.2599 31.0643 77.2599C31.0643 77.2599 38.7642 85.3989 43.645 81.4919C43.645 81.4919 44.1877 64.8869 43.1024 60.9799C42.0171 57.0729 36.8125 43.9359 36.8125 43.9359L35.7282 40.4629L29.981 43.7179L29.2205 61.8519Z" fill="#67647E"/>
<path opacity="0.1" d="M37.6261 38.575C35.5535 40.0207 33.0398 40.6931 30.5227 40.475C26.7253 39.932 24.5577 56.754 24.5577 56.754C24.5577 56.754 23.1476 65.4359 27.7026 64.6769L37.789 61.312C36.5074 59.8896 35.8443 58.0153 35.9462 56.103L31.0644 58.055L31.2832 48.7229L37.6261 38.575Z" fill="black"/>
<path opacity="0.1" d="M24.7734 56.535C24.7734 56.535 23.3634 65.217 27.9184 64.458L38.0047 61.093C36.7225 59.6711 36.0594 57.7965 36.1619 55.884L31.2831 57.838L24.7734 56.535Z" fill="black"/>
<path d="M35.9222 57.0279C35.9222 57.0279 39.3069 52.5749 41.7993 54.7129C44.2917 56.8509 36.8156 60.7689 36.8156 60.7689L35.9222 57.0279Z" fill="#A1616A"/>
<path d="M37.6261 38.3569C35.5535 39.8027 33.0398 40.4751 30.5227 40.2569C26.7253 39.7139 24.5577 56.5359 24.5577 56.5359C24.5577 56.5359 23.1476 65.2179 27.7026 64.4589L37.789 61.0939C36.5074 59.6716 35.8443 57.7973 35.9462 55.8849L31.0644 57.8389L31.2832 48.5049L36.8146 43.9489L37.6261 38.3569Z" fill="#67647E"/>
<path opacity="0.1" d="M44.2946 37.1088L38.1127 35.5898C38.1127 35.5898 38.4345 35.9548 38.0587 37.3798C39.0581 38.5218 40.2763 40.0399 41.9092 40.0399C43.0773 40.0419 44.2145 39.6647 45.15 38.9648C44.8007 38.3779 44.514 37.7558 44.2946 37.1088Z" fill="black"/>
<path d="M41.8013 39.824C44.7966 39.824 47.2247 37.3942 47.2247 34.397C47.2247 31.3997 44.7966 28.97 41.8013 28.97C38.806 28.97 36.3779 31.3997 36.3779 34.397C36.3779 37.3942 38.806 39.824 41.8013 39.824Z" fill="#A1616A"/>
<path opacity="0.1" d="M43.8569 32.0409C45.1151 31.8269 46.4981 31.2679 46.9199 30.0629C47.1538 29.2675 47.0157 28.4088 46.5441 27.7269C46.0724 27.0568 45.4763 26.4837 44.7883 26.0389C43.7277 25.2344 42.5038 24.6722 41.2026 24.3919C40.9776 24.3381 40.7431 24.3381 40.5181 24.3919C40.3226 24.4709 40.1366 24.5715 39.9635 24.6919C38.9946 25.058 37.9415 25.1406 36.9275 24.9299C35.8941 24.8759 34.654 25.1679 34.3292 26.1449C34.2292 26.4449 34.2352 26.7729 34.1603 27.0829C33.8986 27.814 33.4978 28.4874 32.9801 29.0659C32.4579 29.6603 32.3015 30.4924 32.5723 31.2359C32.6992 31.4669 32.9101 31.6799 32.9101 31.9429C32.8775 32.1302 32.8207 32.3124 32.7412 32.4849C32.6659 33.0786 32.9977 33.6491 33.5507 33.8769C34.0663 34.1439 34.66 34.2259 35.1866 34.4769C36.193 34.973 36.8177 36.0108 36.7856 37.1329C37.2569 37.261 37.761 37.1599 38.1467 36.8599C38.2916 36.6999 38.3625 36.4849 38.4944 36.3149C38.6893 36.1132 38.9066 35.9344 39.142 35.7819C40.2773 34.8489 39.4708 33.5599 40.1134 32.5539C40.4501 32.0359 40.9868 32.1949 41.5304 32.2029C42.3093 32.2215 43.0881 32.1673 43.8569 32.0409Z" fill="black"/>
<path d="M43.7489 31.933C45.0071 31.719 46.3902 31.16 46.8119 29.955C47.046 29.1596 46.9078 28.3008 46.4361 27.619C45.9645 26.9489 45.3684 26.3758 44.6803 25.931C43.6197 25.1264 42.3958 24.5642 41.0947 24.284C40.8697 24.2302 40.6351 24.2302 40.4101 24.284C40.2146 24.363 40.0286 24.4636 39.8555 24.584C38.8866 24.9501 37.8335 25.0327 36.8195 24.822C35.7862 24.768 34.546 25.06 34.2212 26.037C34.1213 26.337 34.1263 26.665 34.0523 26.975C33.7906 27.7061 33.3898 28.3795 32.8721 28.958C32.3499 29.5523 32.1935 30.3845 32.4644 31.128C32.5913 31.359 32.8011 31.572 32.8011 31.835C32.7685 32.0222 32.7118 32.2044 32.6323 32.377C32.557 32.9707 32.8887 33.5412 33.4417 33.769C33.9574 34.036 34.551 34.118 35.0776 34.369C36.0863 34.8662 36.7116 35.9074 36.6766 37.032C37.1479 37.1601 37.6521 37.059 38.0377 36.759C38.1826 36.599 38.2535 36.384 38.3855 36.214C38.5803 36.0123 38.7976 35.8334 39.033 35.681C40.1683 34.748 39.3618 33.459 40.0044 32.453C40.3412 31.935 40.8778 32.094 41.4215 32.102C42.2008 32.1183 42.9801 32.0618 43.7489 31.933Z" fill="#4A4347"/>
<path opacity="0.1" d="M50.3137 50.187C50.3137 50.187 51.5067 56.373 50.9647 58.761C50.6338 60.15 50.6828 61.6025 51.1067 62.966" fill="black"/>
<path opacity="0.1" d="M31.0425 52.791C31.0425 52.791 30.5225 56.915 31.3885 57.783L31.0425 52.791Z" fill="black"/>
<path d="M61.3226 103.616C61.4623 103.616 61.5756 103.503 61.5756 103.363C61.5756 103.223 61.4623 103.11 61.3226 103.11C61.1829 103.11 61.0696 103.223 61.0696 103.363C61.0696 103.503 61.1829 103.616 61.3226 103.616Z" fill="black"/>
<g opacity="0.5">
<path d="M139.213 74.127V73.987L93.2014 38.587C93.1419 38.5433 93.061 38.5433 93.0015 38.587L46.9879 73.987V128.865H47.0758V128.953H139.306V74.075L139.213 74.127Z" fill="url(#paint1_linear_125_8927)"/>
</g>
<path d="M137.624 127.334H48.5828V74.3458L93.1034 40.0898L137.624 74.3458V127.334Z" fill="white"/>
<path d="M134.419 124.194H51.7856V75.02L93.1024 43.229L134.419 75.02V124.194Z" fill="#E0E0E0"/>
<path d="M107.12 42.4939L56.7134 55.717L73.5201 119.868L123.926 106.645L107.12 42.4939Z" fill="#1CE5AF"/>
<path d="M119.411 52.24H67.3015V118.559H119.411V52.24Z" fill="#F5F5F5"/>
<path opacity="0.05" d="M49.0035 74.4309L93.5241 100.925L49.0035 127.419V74.4309Z" fill="black"/>
<path d="M48.6667 74.4309L93.1874 100.925L48.6667 127.419V74.4309Z" fill="white"/>
<path opacity="0.05" d="M137.37 74.4309L92.8496 100.925L137.37 127.419V74.4309Z" fill="black"/>
<path d="M137.708 74.4309L93.1874 100.925L137.708 127.419V74.4309Z" fill="white"/>
<path opacity="0.05" d="M48.6667 126.576L93.1874 91.813L137.708 126.576H48.6667Z" fill="black"/>
<path d="M48.6667 127.419L93.1874 92.656L137.708 127.419H48.6667Z" fill="white"/>
<path d="M57.7138 131.443C57.7138 131.443 55.4773 123.849 58.1335 118.257C59.2617 115.919 59.6018 113.279 59.1029 110.731C58.8566 109.524 58.5004 108.341 58.0386 107.199" stroke="#535461" stroke-width="2"/>
<path d="M59.6905 103.665C59.6905 104.597 58.0036 107.295 58.0036 107.295C58.0036 107.295 56.3177 104.595 56.3177 103.665C56.34 102.749 57.0884 102.018 58.0041 102.018C58.9197 102.018 59.6682 102.749 59.6905 103.665Z" fill="#0B555F"/>
<path d="M62.4816 108.823C61.9759 109.604 59.0948 110.954 59.0948 110.954C59.0948 110.954 59.1468 107.771 59.6535 106.99C60.1793 106.261 61.1843 106.072 61.9387 106.561C62.6931 107.05 62.9318 108.045 62.4816 108.823Z" fill="#0B555F"/>
<path d="M62.3527 117.633C61.5213 118.052 58.3553 117.763 58.3553 117.763C58.3553 117.763 60.0063 115.043 60.8357 114.624C61.3769 114.319 62.0418 114.336 62.5664 114.669C63.0911 115.001 63.3907 115.596 63.3462 116.216C63.3018 116.835 62.9205 117.381 62.3537 117.635L62.3527 117.633Z" fill="#0B555F"/>
<path d="M60.7618 124.28C60.0133 124.834 56.8423 125.08 56.8423 125.08C56.8423 125.08 58.0096 122.12 58.7581 121.567C59.506 121.09 60.4953 121.274 61.0219 121.988C61.5485 122.702 61.4327 123.702 60.7568 124.277L60.7618 124.28Z" fill="#0B555F"/>
<path d="M55.5512 111.133C56.2257 111.781 59.3267 112.454 59.3267 112.454C59.3267 112.454 58.5662 109.364 57.8986 108.716C57.223 108.126 56.2046 108.168 55.5799 108.812C54.9553 109.455 54.9426 110.475 55.5512 111.134V111.133Z" fill="#0B555F"/>
<path d="M53.7884 118.931C54.6198 119.35 57.7857 119.061 57.7857 119.061C57.7857 119.061 56.1348 116.341 55.3054 115.922C54.4839 115.559 53.5221 115.903 53.1175 116.705C52.7129 117.508 53.0074 118.487 53.7874 118.932L53.7884 118.931Z" fill="#0B555F"/>
<path d="M53.1138 126.741C53.8623 127.294 57.0332 127.541 57.0332 127.541C57.0332 127.541 55.866 124.581 55.1175 124.028C54.6372 123.62 53.9694 123.513 53.3862 123.752C52.8029 123.991 52.4014 124.536 52.3452 125.164C52.2889 125.792 52.5873 126.399 53.1188 126.738L53.1138 126.741Z" fill="#0B555F"/>
<path opacity="0.5" d="M91.2476 55.2778H70.3364V56.9658H91.2476V55.2778Z" fill="#009B84"/>
<path opacity="0.5" d="M115.532 62.0278H70.3364V63.7158H115.532V62.0278Z" fill="#009B84"/>
<path opacity="0.5" d="M115.532 66.416H70.3364V68.104H115.532V66.416Z" fill="#009B84"/>
<path opacity="0.4" d="M115.532 70.803H70.3364V72.491H115.532V70.803Z" fill="#009B84"/>
<path opacity="0.4" d="M115.532 75.1909H70.3364V76.8789H115.532V75.1909Z" fill="#009B84"/>
<path opacity="0.3" d="M96.1384 79.5779H70.3364V81.2659H96.1384V79.5779Z" fill="#009B84"/>
<path opacity="0.3" d="M105.582 83.9658H70.3364V85.6538H105.582V83.9658Z" fill="#009B84"/>
<defs>
<linearGradient id="paint0_linear_125_8927" x1="23.6698" y1="78.276" x2="59.7516" y2="78.276" gradientUnits="userSpaceOnUse">
<stop stop-color="#808080" stop-opacity="0.251"/>
<stop offset="0.54" stop-color="#808080" stop-opacity="0.122"/>
<stop offset="1" stop-color="#808080" stop-opacity="0.102"/>
</linearGradient>
<linearGradient id="paint1_linear_125_8927" x1="93.1469" y1="128.953" x2="93.1469" y2="38.5542" gradientUnits="userSpaceOnUse">
<stop stop-color="#808080" stop-opacity="0.251"/>
<stop offset="0.54" stop-color="#808080" stop-opacity="0.122"/>
<stop offset="1" stop-color="#808080" stop-opacity="0.102"/>
</linearGradient>
</defs>
</svg>
