<svg width="40" height="40" viewBox="0 0 40 40" fill="none" xmlns="http://www.w3.org/2000/svg">
<mask id="mask0_105_6095" style="mask-type:alpha" maskUnits="userSpaceOnUse" x="0" y="0" width="40" height="40">
<path d="M20 40C31.0457 40 40 31.0457 40 20C40 8.9543 31.0457 0 20 0C8.9543 0 0 8.9543 0 20C0 31.0457 8.9543 40 20 40Z" fill="white"/>
</mask>
<g mask="url(#mask0_105_6095)">
<path d="M24.482 14.2847V16.4057L29.861 21.7847L24.482 27.1637V29.2847L31.982 21.7847L24.482 14.2847Z" fill="#3D3691"/>
<path d="M15.482 29.2847V27.1637L10.103 21.7847L15.482 16.4057V14.2847L7.98201 21.7847L15.482 29.2847Z" fill="#3D3691"/>
<path d="M15.5742 33.3311L22.9517 9.79206L24.3827 10.2406L17.0052 33.7796L15.5742 33.3311Z" fill="#3D3691"/>
<path d="M17.732 14.2847C18.1744 13.2798 18.9771 12.4771 19.982 12.0347C18.9771 11.5923 18.1744 10.7895 17.732 9.78467C17.2896 10.7895 16.4869 11.5923 15.482 12.0347C16.4869 12.4771 17.2896 13.2798 17.732 14.2847Z" fill="#3D3691"/>
<path d="M21.65 8.57871C21.8863 8.04298 22.3143 7.61495 22.85 7.37871C22.3143 7.14247 21.8863 6.71444 21.65 6.17871C21.4138 6.71444 20.9857 7.14247 20.45 7.37871C20.9857 7.61495 21.4138 8.04298 21.65 8.57871Z" fill="#3D3691"/>
<path d="M28.982 14.2847C29.2769 13.6148 29.8121 13.0796 30.482 12.7847C29.8121 12.4897 29.2769 11.9546 28.982 11.2847C28.6871 11.9546 28.1519 12.4897 27.482 12.7847C28.1519 13.0796 28.6871 13.6148 28.982 14.2847Z" fill="#3D3691"/>
<path d="M20.001 39.2315C30.622 39.2315 39.232 30.6215 39.232 20.0005C39.232 9.37954 30.622 0.769531 20.001 0.769531C9.38002 0.769531 0.770004 9.37954 0.770004 20.0005C0.770004 30.6215 9.38002 39.2315 20.001 39.2315Z" stroke="#3D3691" stroke-width="1.538"/>
</g>
</svg>
