<svg width="695" height="656" viewBox="0 0 695 656" fill="none" xmlns="http://www.w3.org/2000/svg">
<path d="M0.748047 1.86035C176.085 89.9073 323.972 14.5664 493.619 70.4904C663.266 126.414 730.121 263.281 675 386.245C619.879 509.209 340.322 508.532 156 654.345" stroke="#3D3691" stroke-width="2"/>
<path opacity="0.136" d="M387.063 298.04C484.433 298.04 563.363 304.169 563.363 311.729C563.363 319.289 484.436 325.419 387.063 325.419C289.69 325.419 210.763 319.29 210.763 311.729C210.763 304.168 289.697 298.04 387.063 298.04Z" fill="#584DFC"/>
<path opacity="0.587" d="M448.047 359.851C474.395 359.851 495.753 356.136 495.753 351.554C495.753 346.972 474.395 343.257 448.047 343.257C421.7 343.257 400.341 346.972 400.341 351.554C400.341 356.136 421.7 359.851 448.047 359.851Z" fill="#DEDBFF"/>
<path d="M423.078 312.145L349.159 311.195L349.379 309.295L352.951 278.021H417.868L422.643 309.295L423.008 311.668L423.078 312.145Z" fill="#D0D2D5"/>
<path opacity="0.1" d="M423.009 311.672H386.12L349.159 311.195L349.379 309.295H422.642L423.009 311.672Z" fill="black"/>
<path d="M434.926 309.776H336.839V312.145H434.926V309.776Z" fill="#D0D2D5"/>
<path d="M528.507 90.189C528.518 86.7858 525.771 84.0165 522.368 84H248.446C246.81 84.0079 245.244 84.6656 244.093 85.8284C242.941 86.9912 242.299 88.5637 242.307 90.2V256.234H528.507V90.189Z" fill="#3F3D56"/>
<path d="M242.307 254.574V274.021C242.307 277.411 245.056 280.16 248.446 280.16H522.368C525.758 280.159 528.507 277.411 528.507 274.021V254.574H242.307Z" fill="#D0D2D5"/>
<path d="M518.082 94.412H254.154V243.673H518.082V94.412Z" fill="white"/>
<path d="M386.831 272.781C388.795 272.783 390.65 271.882 391.863 270.338C392.046 270.106 392.213 269.862 392.363 269.608L388.849 269.015L392.649 269.04C393.384 267.44 393.427 265.608 392.769 263.975L387.679 266.613L392.379 263.162C391.185 261.077 388.925 259.837 386.526 259.949C384.126 260.061 381.992 261.508 380.998 263.695C380.004 265.882 380.319 268.441 381.813 270.322C383.021 271.872 384.876 272.779 386.841 272.782L386.831 272.781Z" fill="#584DFC"/>
<path opacity="0.1" d="M393.227 280.157L422.717 309.776L418.191 280.157H393.227Z" fill="black"/>
<path opacity="0.1" d="M518.162 94.429H253.947V103.149H518.162V94.429Z" fill="#444053"/>
<path opacity="0.3" d="M424.709 95.947H346.263C345.943 95.947 345.683 96.2067 345.683 96.527V100.673C345.683 100.993 345.943 101.253 346.263 101.253H424.709C425.029 101.253 425.289 100.993 425.289 100.673V96.527C425.289 96.2067 425.029 95.947 424.709 95.947Z" fill="#584DFC"/>
<path d="M422.924 99.15H422.724L422.654 99.088C422.895 98.7979 423.027 98.4324 423.027 98.055C423.02 97.1901 422.315 96.4939 421.45 96.4991C420.585 96.5042 419.887 97.2088 419.891 98.0737C419.895 98.9386 420.598 99.6372 421.463 99.635C421.841 99.6338 422.206 99.5005 422.496 99.258L422.567 99.32V99.515L423.782 100.73L424.143 100.365L422.924 99.15ZM421.468 99.15C420.95 99.1483 420.505 98.7812 420.405 98.2729C420.305 97.7647 420.578 97.2564 421.057 97.0585C421.535 96.8606 422.087 97.028 422.375 97.4585C422.663 97.889 422.608 98.463 422.242 98.83C422.036 99.0346 421.758 99.1496 421.468 99.15Z" fill="#3F3D56"/>
<path opacity="0.8" d="M258.697 100.386C259.579 100.386 260.294 99.671 260.294 98.789C260.294 97.907 259.579 97.192 258.697 97.192C257.815 97.192 257.1 97.907 257.1 98.789C257.1 99.671 257.815 100.386 258.697 100.386Z" fill="#FA5959"/>
<path opacity="0.8" d="M263.09 100.386C263.972 100.386 264.687 99.671 264.687 98.789C264.687 97.907 263.972 97.192 263.09 97.192C262.208 97.192 261.493 97.907 261.493 98.789C261.493 99.671 262.208 100.386 263.09 100.386Z" fill="#FED253"/>
<path opacity="0.8" d="M267.487 100.386C268.369 100.386 269.084 99.671 269.084 98.789C269.084 97.907 268.369 97.192 267.487 97.192C266.605 97.192 265.89 97.907 265.89 98.789C265.89 99.671 266.605 100.386 267.487 100.386Z" fill="#8CCF4D"/>
<path d="M400.101 158.458C396.48 153.646 391.232 150.609 385.391 150.609C379.55 150.609 374.303 153.646 370.681 158.458C373.116 164.441 378.932 168.354 385.391 168.354C391.851 168.354 397.667 164.441 400.101 158.458Z" fill="#584DFC"/>
<path d="M368.768 161.274C368.51 161.163 368.266 161.024 368.038 160.859C367.696 160.577 367.423 160.221 367.238 159.818C367.897 158.466 367.444 156.835 366.184 156.016C364.923 155.196 363.249 155.445 362.281 156.596C361.313 157.746 361.354 159.438 362.376 160.54C362.584 160.761 362.822 160.952 363.081 161.108C363.419 161.304 363.694 161.592 363.873 161.938C364.213 162.623 364.68 163.237 365.25 163.747C365.836 164.249 366.468 164.693 367.138 165.074C366.216 167.685 365.692 170.421 365.586 173.188C364.514 173.206 363.449 173.378 362.425 173.698C361.901 173.861 361.407 174.107 360.961 174.428C360.842 174.413 360.721 174.405 360.6 174.403C359.091 174.403 357.819 175.53 357.638 177.029C357.458 178.528 358.425 179.925 359.892 180.284C361.358 180.642 362.861 179.848 363.392 178.435C363.632 177.764 364.226 177.284 364.931 177.19C365.186 177.159 365.442 177.142 365.698 177.14C366.055 181.044 367.266 184.821 369.245 188.204C367.68 189.302 366.52 190.885 365.945 192.709C365.86 192.756 365.781 192.813 365.709 192.879C365.584 192.977 365.468 193.085 365.361 193.203C364.379 194.285 364.327 195.919 365.238 197.061C366.148 198.204 367.753 198.517 369.027 197.8C370.3 197.084 370.865 195.549 370.361 194.178C370.084 193.442 370.275 192.612 370.846 192.071C371.07 191.856 371.305 191.654 371.551 191.465C374.915 195.393 378.918 197.911 383.917 198.21V171.558C377.4 171.064 371.633 167.149 368.768 161.274ZM410.181 174.432C410.061 174.434 409.94 174.442 409.82 174.457C409.371 174.144 408.877 173.898 408.356 173.727C407.333 173.406 406.268 173.234 405.195 173.217C405.08 170.452 404.558 167.719 403.644 165.107C404.315 164.726 404.947 164.282 405.532 163.78C406.121 163.24 406.605 162.596 406.959 161.88C407.125 161.57 407.381 161.317 407.693 161.154C409.104 160.361 409.623 158.586 408.862 157.157C408.101 155.729 406.338 155.17 404.893 155.899C403.448 156.628 402.849 158.378 403.545 159.839C403.364 160.244 403.09 160.601 402.745 160.88C402.513 161.072 402.269 161.251 402.015 161.415C399.141 167.255 393.376 171.125 386.882 171.574V198.252C391.86 197.952 395.888 195.423 399.248 191.507C399.509 191.714 399.729 191.901 399.916 192.075C400.512 192.627 400.718 193.482 400.439 194.245C399.938 195.615 400.502 197.146 401.773 197.863C403.043 198.579 404.646 198.27 405.559 197.132C406.472 195.994 406.426 194.363 405.45 193.278C405.343 193.16 405.227 193.052 405.101 192.954C404.964 192.846 404.865 192.784 404.865 192.784C404.293 190.954 403.125 189.368 401.546 188.279C403.526 184.896 404.737 181.119 405.093 177.215C405.339 177.218 405.584 177.235 405.827 177.265C406.548 177.357 407.161 177.834 407.427 178.51C407.938 179.808 409.282 180.578 410.661 180.362C412.039 180.146 413.083 179.002 413.172 177.61C413.214 176.789 412.92 175.986 412.357 175.386C411.794 174.787 411.012 174.442 410.189 174.432H410.181Z" fill="#584DFC"/>
<path d="M475.164 346.716C474.924 346.334 474.619 345.996 474.264 345.716C472.552 343.868 471.467 341.526 471.164 339.025C470.869 336.54 470.437 334.074 469.87 331.637C469.48 330.4 468.992 329.196 468.41 328.037C467.995 327.149 467.472 325.411 466.71 324.789C466.561 324.66 466.381 324.573 466.187 324.536C465.829 323.774 465.319 323.093 464.687 322.536C463.501 321.462 462.053 320.607 461.26 319.217C461.043 318.735 460.775 318.277 460.46 317.852C459.925 317.263 459.079 317.022 458.585 316.4C457.942 315.6 458.085 314.442 458.17 313.417C458.255 312.392 458.17 311.164 457.282 310.625C456.751 310.297 456.067 310.33 455.515 310.04C454.719 309.517 454.279 308.594 454.374 307.646C454.391 306.713 454.681 305.804 454.756 304.871C454.988 301.901 453.03 298.947 453.785 296.071C454.164 295.011 454.642 293.988 455.212 293.018C455.382 292.68 455.521 292.327 455.627 291.964C456.922 292.477 458.282 292.805 459.668 292.939C457.382 287.812 457.963 281.855 456.897 276.346L457.034 276.159C458.111 274.739 458.723 273.02 458.785 271.239C458.785 269.19 457.827 267.273 457.395 265.265C457.026 263.56 457.042 261.776 456.565 260.1C456.235 259.057 455.795 258.051 455.254 257.1C454.737 256.141 454.194 255.196 453.624 254.267C453.091 252.508 452.558 250.749 452.024 248.99C451.402 246.483 450.401 244.086 449.058 241.88C448.527 241.1 448.365 239.515 447.548 239.043C446.885 238.7 446.132 238.568 445.391 238.666C444.207 238.14 443.347 237.077 443.08 235.808C443.066 235.529 443.094 235.249 443.163 234.978H443.304C445.129 234.812 446.054 233.202 447.004 231.792C448.539 229.51 447.954 226.424 447.004 223.827C446.769 223.007 446.342 222.256 445.759 221.633C444.427 220.388 442.32 220.662 440.603 220.061C440.026 219.861 439.487 219.561 438.903 219.418C437.737 219.232 436.542 219.456 435.522 220.053C434.513 220.647 433.473 221.189 432.407 221.675C431.307 222.09 429.959 222.417 429.69 223.542C429.615 223.921 429.646 224.313 429.781 224.675C430.034 225.396 430.477 226.036 431.063 226.525C430.118 228.471 430.074 230.734 430.941 232.715C431.809 234.697 433.501 236.199 435.572 236.825C435.887 237.331 436.182 237.845 436.451 238.372C437 239.279 437.253 240.335 437.173 241.392C436.873 241.711 436.596 242.05 436.343 242.408C435.23 244.116 434.39 245.987 433.854 247.954C433.02 250.433 432.352 252.965 431.854 255.533C430.726 257.626 429.73 259.787 428.871 262.004C427.557 262.005 426.248 261.83 424.98 261.481L421.48 260.689C420.24 260.508 419.059 260.035 418.037 259.308C417.531 258.893 417.137 258.341 416.622 257.931C416.107 257.521 415.075 257.039 414.511 257.379C414.408 257.442 414.312 257.515 414.225 257.599C413.711 256.558 413.225 255.525 412.625 254.517C411.855 253.037 410.489 251.956 408.871 251.547C407.883 251.388 406.871 251.623 406.054 252.202C405.108 252.874 404.515 254.276 405.224 255.222C405.402 255.432 405.595 255.629 405.801 255.811C406.282 256.364 406.711 256.96 407.083 257.591C408.422 259.469 410.423 260.768 412.683 261.225L412.538 261.64C412.243 262.503 411.617 263.54 411.775 264.44L427.348 269.771C428.347 270.177 429.408 270.411 430.484 270.464C430.905 270.461 431.323 270.405 431.729 270.298V271.128C431.771 276.6 430.899 282.034 430.738 287.501C430.604 288.497 430.828 289.508 431.369 290.355C432.169 291.149 433.327 291.464 434.418 291.185C434.679 291.141 434.937 291.083 435.19 291.011C435.561 292.387 435.828 293.789 435.99 295.205L437.019 302.614C437.152 303.373 437.206 304.144 437.181 304.914C437.061 306.652 436.144 308.208 435.481 309.814C434.818 311.42 434.423 313.34 435.294 314.842C435.568 315.307 435.945 315.701 436.194 316.182C436.506 316.927 436.647 317.732 436.609 318.538C436.676 320.773 436.737 323.01 436.791 325.25C436.611 325.219 436.425 325.255 436.268 325.35C435.405 326.022 435.501 329.22 435.438 330.212C435.372 331.871 435.438 333.564 435.347 335.24C435.239 337.499 434.876 339.738 434.264 341.915C434.115 342.622 433.788 343.28 433.314 343.827C432.829 344.249 432.251 344.549 431.626 344.702C429.559 345.349 427.398 345.644 425.233 345.573C424.361 345.464 423.475 345.539 422.633 345.793C421.772 346.086 421.267 346.978 421.459 347.867C421.82 348.522 422.443 348.992 423.172 349.157C424.755 349.715 426.283 350.418 427.735 351.257C428.295 351.638 428.884 351.973 429.498 352.257C430.087 352.468 430.696 352.618 431.315 352.705L438.67 353.974C440.176 354.231 441.989 354.389 442.947 353.144C443.409 352.419 443.61 351.559 443.515 350.705C443.334 349.042 443.282 347.369 443.357 345.698C443.521 344.717 443.78 343.754 444.129 342.823C444.863 340.646 445.598 338.471 446.336 336.298C447.15 334.138 447.743 331.902 448.107 329.623C448.324 328.816 448.122 327.955 447.568 327.329C447.408 327.197 447.221 327.101 447.02 327.047C446.995 325.047 446.734 323.047 446.846 321.047C446.875 320.547 446.925 320.047 446.966 319.547C447.351 319.912 447.695 320.318 447.991 320.758C448.7 321.87 448.962 323.338 450.044 324.077C450.965 324.708 452.33 324.677 452.977 325.587C453.185 325.937 453.342 326.316 453.442 326.711C453.818 327.689 454.382 328.584 455.101 329.345C455.349 330.256 455.692 331.137 456.126 331.975C456.738 333.266 457.346 334.554 457.951 335.837C458.574 337.222 459.266 338.575 460.025 339.89C460.605 340.718 461.073 341.619 461.415 342.57C461.861 344.702 461.146 346.911 459.536 348.378C457.943 349.79 456.087 350.872 454.073 351.564C453.867 351.634 453.677 351.747 453.517 351.896C453.347 352.097 453.257 352.354 453.264 352.618C453.339 353.595 454.014 354.423 454.956 354.692C455.881 354.939 456.85 354.973 457.789 354.792C463.122 354.274 468.306 352.742 473.063 350.279C473.764 349.947 474.386 349.467 474.884 348.873C475.366 348.26 475.473 347.432 475.164 346.716Z" fill="url(#paint0_linear_6_328)"/>
<path d="M452.759 253.693C453.644 255.051 454.474 256.442 455.248 257.866C455.791 258.808 456.231 259.805 456.563 260.84C457.044 262.499 457.032 264.271 457.393 265.963C457.808 267.954 458.779 269.854 458.779 271.895C458.716 273.663 458.104 275.368 457.028 276.773C455.956 278.166 454.728 279.433 453.369 280.548C450.237 272.433 448.487 263.85 448.192 255.156C448.079 253.953 448.211 252.739 448.582 251.588C448.852 250.883 450.146 248.95 450.982 249.709C451.282 249.987 451.364 251.24 451.55 251.659C451.9 252.368 452.305 253.047 452.761 253.692L452.759 253.693Z" fill="#2F2E41"/>
<path opacity="0.1" d="M452.759 253.693C453.644 255.051 454.474 256.442 455.248 257.866C455.791 258.808 456.231 259.805 456.563 260.84C457.044 262.499 457.032 264.271 457.393 265.963C457.808 267.954 458.779 269.854 458.779 271.895C458.716 273.663 458.104 275.368 457.028 276.773C455.956 278.166 454.728 279.433 453.369 280.548C450.237 272.433 448.487 263.85 448.192 255.156C448.079 253.953 448.211 252.739 448.582 251.588C448.852 250.883 450.146 248.95 450.982 249.709C451.282 249.987 451.364 251.24 451.55 251.659C451.9 252.368 452.305 253.047 452.761 253.692L452.759 253.693Z" fill="black"/>
<path d="M343.393 197.095C340.112 200.372 339.718 201.816 337.747 202.467C335.776 203.118 328.687 206.79 330.915 210.859L336.905 214.816L337.079 214.932L337.996 217.686L328.936 233.815C328.936 233.815 314.002 226.987 312.536 237.088C311.07 247.189 312.001 249.948 311.607 255.341C311.213 260.734 311.736 262.294 310.421 262.294C309.106 262.294 308.587 258.751 308.587 258.751C308.587 258.751 308.504 258.589 308.359 258.286C306.405 254.225 293.143 224.411 314.386 203.918C314.386 203.918 324.226 203.271 326.594 191.987C328.228 184.187 333.945 184.86 337.745 186.449C338.98 186.932 340.131 187.607 341.155 188.449C342.076 189.32 342.896 190.293 343.598 191.349C344.683 193.067 345.272 195.212 343.393 197.095Z" fill="#D0D2D5"/>
<path opacity="0.1" d="M337.079 214.938L337.996 217.693L328.936 233.822C328.936 233.822 314.002 226.994 312.536 237.095C311.07 247.196 312.001 249.955 311.607 255.348C311.213 260.741 311.736 262.301 310.421 262.301C309.106 262.301 308.587 258.758 308.587 258.758C308.587 258.758 308.504 258.596 308.359 258.293C307.699 253.249 304.359 223.742 316.477 225.31C316.477 225.31 326.313 229.91 327.885 228.073C329.13 226.621 334.655 218.273 336.903 214.844L337.079 214.938Z" fill="black"/>
<path opacity="0.1" d="M343.6 191.333L337.61 198.14C337.61 198.14 330.653 207.449 329.21 207.055C328.778 206.961 328.337 206.91 327.895 206.902C326.912 206.827 326.06 206.193 325.706 205.273C325.351 204.353 325.558 203.311 326.236 202.596C328.609 200.107 332.981 195.382 333.267 194.333C333.553 193.284 336.337 188.683 337.731 186.433C338.966 186.916 340.117 187.591 341.141 188.433C342.068 189.303 342.893 190.276 343.6 191.333Z" fill="black"/>
<path d="M513.084 289.274C512.068 291.307 506.862 298.931 504.584 302.262L503.518 303.83C503.518 303.83 503.103 306.584 496.304 303.17C489.505 299.756 329.755 232.348 329.755 232.348L328.672 229.096L336.554 217.296L511.645 284.941C511.645 284.941 514.399 286.646 513.084 289.274Z" fill="#454B69"/>
<path opacity="0.1" d="M504.584 302.26L503.518 303.828C503.518 303.828 503.103 306.582 496.304 303.168C489.505 299.754 329.755 232.348 329.755 232.348L328.672 229.096L504.584 302.26Z" fill="black"/>
<path d="M408.226 258.229C406.606 257.851 404.902 258.185 403.543 259.146C402.781 259.791 402.299 260.707 402.199 261.701C402.091 262.85 402.759 264.215 403.912 264.301C404.19 264.304 404.467 264.286 404.742 264.247C405.471 264.244 406.198 264.305 406.916 264.429C409.783 264.699 412.602 263.56 414.478 261.376C415.469 260.131 414.163 259.592 412.993 259.343C411.392 259.004 409.828 258.486 408.226 258.229Z" fill="#FBBEBE"/>
<path d="M435.971 295.692L437 303.001C437.131 303.756 437.184 304.522 437.158 305.287C437.038 307.008 436.121 308.552 435.458 310.145C434.795 311.738 434.396 313.645 435.271 315.123C435.541 315.583 435.918 315.978 436.163 316.455C436.474 317.193 436.616 317.99 436.578 318.79L436.86 329.161C440.063 329.379 443.277 329.361 446.476 329.107C446.601 329.113 446.725 329.075 446.824 328.999C446.909 328.892 446.951 328.758 446.944 328.622C447.085 326.195 446.662 323.764 446.799 321.338C446.849 320.45 446.973 319.567 446.99 318.675C447.04 315.062 445.256 311.523 445.795 307.952C445.965 307.051 446.186 306.16 446.459 305.285C448.159 299.063 447.803 292.525 447.426 286.099C447.433 285.996 447.403 285.893 447.343 285.809C447.282 285.748 447.204 285.706 447.119 285.689C443.436 284.584 439.446 285.342 436.425 287.722C435.973 288.087 434.832 288.44 434.533 288.875C434.118 289.481 434.662 290.086 434.902 290.729C435.436 292.34 435.794 294.004 435.971 295.692Z" fill="#3F3D56"/>
<path opacity="0.1" d="M435.971 295.692L437 303.001C437.131 303.756 437.184 304.522 437.158 305.287C437.038 307.008 436.121 308.552 435.458 310.145C434.795 311.738 434.396 313.645 435.271 315.123C435.541 315.583 435.918 315.978 436.163 316.455C436.474 317.193 436.616 317.99 436.578 318.79L436.86 329.161C440.063 329.379 443.277 329.361 446.476 329.107C446.601 329.113 446.725 329.075 446.824 328.999C446.909 328.892 446.951 328.758 446.944 328.622C447.085 326.195 446.662 323.764 446.799 321.338C446.849 320.45 446.973 319.567 446.99 318.675C447.04 315.062 445.256 311.523 445.795 307.952C445.965 307.051 446.186 306.16 446.459 305.285C448.159 299.063 447.803 292.525 447.426 286.099C447.433 285.996 447.403 285.893 447.343 285.809C447.282 285.748 447.204 285.706 447.119 285.689C443.436 284.584 439.446 285.342 436.425 287.722C435.973 288.087 434.832 288.44 434.533 288.875C434.118 289.481 434.662 290.086 434.902 290.729C435.436 292.34 435.794 294.004 435.971 295.692Z" fill="black"/>
<path d="M455.206 293.49C454.638 294.453 454.16 295.467 453.779 296.518C453.024 299.376 454.979 302.326 454.746 305.254C454.671 306.179 454.385 307.079 454.364 308.004C454.276 308.947 454.715 309.863 455.505 310.385C456.057 310.667 456.75 310.638 457.268 310.962C458.143 311.497 458.243 312.713 458.156 313.733C458.069 314.753 457.924 315.894 458.571 316.691C459.065 317.309 459.911 317.55 460.442 318.135C460.758 318.555 461.026 319.008 461.242 319.487C462.034 320.873 463.482 321.719 464.669 322.806C465.856 323.893 466.859 325.486 466.328 326.992C465.808 328.056 464.899 328.879 463.789 329.292C461.867 330.242 459.838 330.959 457.745 331.428C457.521 331.496 457.283 331.509 457.052 331.465C456.819 331.38 456.61 331.237 456.446 331.05C455.131 329.944 454.087 328.552 453.393 326.98C453.293 326.589 453.136 326.214 452.928 325.868C452.281 324.96 450.916 324.993 449.995 324.368C448.916 323.634 448.655 322.178 447.95 321.078C447.167 320.13 446.336 319.222 445.461 318.357C444.192 316.747 443.881 314.599 442.972 312.757C442.586 311.977 442.093 311.247 441.786 310.434C441.477 309.461 441.286 308.453 441.218 307.434C440.633 302.589 439.144 297.71 440.081 292.915C440.288 291.861 440.608 290.841 440.741 289.754C440.969 287.875 440.608 285.954 440.886 284.075C440.9 283.598 441.131 283.154 441.512 282.868C441.737 282.767 441.981 282.718 442.226 282.723C444.686 282.592 447.151 282.647 449.602 282.889C450.847 283.009 452.24 283.262 452.987 284.279C453.476 285.24 453.749 286.296 453.787 287.374C454.085 288.493 454.634 289.53 455.392 290.406C456.09 291.428 455.717 292.436 455.206 293.49Z" fill="#3F3D56"/>
<path d="M445.636 327.199C446.289 327.106 446.954 327.237 447.523 327.572C448.07 328.194 448.272 329.048 448.062 329.849C447.695 332.115 447.1 334.339 446.287 336.486L444.08 342.961C443.731 343.885 443.472 344.841 443.308 345.815C443.232 347.476 443.285 349.14 443.466 350.793C443.544 351.64 443.343 352.49 442.894 353.212C441.956 354.419 440.127 354.278 438.621 354.042L431.274 352.797C430.654 352.714 430.045 352.566 429.457 352.353C428.844 352.07 428.254 351.739 427.694 351.362C426.24 350.531 424.713 349.837 423.131 349.288C422.442 349.031 421.671 348.703 421.422 348.01C421.23 347.121 421.735 346.229 422.596 345.936C423.438 345.682 424.323 345.606 425.196 345.712C427.358 345.781 429.517 345.489 431.584 344.849C432.206 344.696 432.784 344.398 433.268 343.978C433.76 343.425 434.095 342.75 434.239 342.024C434.865 339.862 435.238 337.635 435.351 335.387C435.438 333.728 435.38 332.068 435.451 330.409C435.493 329.426 435.397 326.261 436.26 325.584C436.92 325.078 439.633 326.476 440.524 326.684C442.2 327.067 443.917 327.24 445.636 327.199Z" fill="#2F2E41"/>
<path d="M469.838 331.812C470.397 334.232 470.829 336.68 471.132 339.146C471.444 341.629 472.528 343.95 474.232 345.783C474.585 346.064 474.889 346.402 475.132 346.783C475.444 347.507 475.324 348.345 474.821 348.952C474.32 349.543 473.7 350.02 473 350.352C468.24 352.8 463.058 354.322 457.73 354.836C456.791 355.013 455.825 354.979 454.901 354.736C453.959 354.468 453.284 353.639 453.213 352.662C453.204 352.4 453.293 352.144 453.462 351.944C453.623 351.796 453.814 351.684 454.022 351.616C456.029 350.919 457.883 349.842 459.482 348.443C461.09 346.999 461.807 344.808 461.361 342.693C461.014 341.749 460.543 340.854 459.961 340.034C459.203 338.73 458.51 337.388 457.887 336.014L456.062 332.185C455.459 331.097 455.064 329.907 454.896 328.675C457.189 328.778 459.479 328.41 461.625 327.596C462.627 327.188 463.56 326.628 464.392 325.937C465.097 325.348 465.74 324.249 466.692 325.016C467.455 325.63 467.936 327.36 468.385 328.235C468.966 329.386 469.452 330.582 469.838 331.812Z" fill="#2F2E41"/>
<path d="M443.089 236.737C443.272 238.33 444.815 239.379 446.289 240.01L436.968 242.984C437.568 241.831 437.084 240.42 436.487 239.25C436.001 238.324 435.446 237.435 434.828 236.591C434.737 236.462 434.633 236.301 434.699 236.151C434.759 236.055 434.852 235.984 434.96 235.951C436.854 235.001 438.867 234.311 440.946 233.902C441.552 233.815 442.697 233.574 443.146 234.188C443.595 234.802 443.002 236.003 443.089 236.737Z" fill="#FBBEBE"/>
<path opacity="0.1" d="M443.089 236.737C443.272 238.33 444.815 239.379 446.289 240.01L436.968 242.984C437.568 241.831 437.084 240.42 436.487 239.25C436.001 238.324 435.446 237.435 434.828 236.591C434.737 236.462 434.633 236.301 434.699 236.151C434.759 236.055 434.852 235.984 434.96 235.951C436.854 235.001 438.867 234.311 440.946 233.902C441.552 233.815 442.697 233.574 443.146 234.188C443.595 234.802 443.002 236.003 443.089 236.737Z" fill="black"/>
<path d="M437.671 238.026C441.708 238.026 444.98 234.754 444.98 230.717C444.98 226.68 441.708 223.408 437.671 223.408C433.635 223.408 430.362 226.68 430.362 230.717C430.362 234.754 433.635 238.026 437.671 238.026Z" fill="#FBBEBE"/>
<path d="M431.338 290.868C432.14 291.657 433.296 291.971 434.387 291.698C436.938 291.283 439.025 289.404 441.522 288.728C444.584 287.898 447.822 288.964 450.715 290.271C453.608 291.578 456.481 293.171 459.642 293.399C456.784 287.027 458.418 279.361 455.684 272.935C455.016 271.363 454.084 269.849 453.934 268.148C453.747 266.037 454.801 264 454.963 261.901C454.99 260.019 454.666 258.148 454.009 256.384L452.009 249.813C451.387 247.325 450.388 244.947 449.047 242.761C448.512 241.985 448.347 240.413 447.537 239.944C445.762 238.919 443.069 240.21 441.144 240.28C439.181 240.515 437.423 241.609 436.344 243.267C435.23 244.958 434.39 246.814 433.855 248.767C432.863 251.635 432.122 254.583 431.64 257.579C431.578 258.027 431.524 258.479 431.482 258.927C431.067 263.187 431.673 267.473 431.706 271.754V271.783C431.748 277.213 430.876 282.61 430.715 288.036C430.592 289.024 430.812 290.023 431.338 290.868Z" fill="#2F2E41"/>
<path opacity="0.1" d="M431.717 271.757C433.163 271.312 434.48 270.523 435.554 269.457C436.517 268.596 437.372 267.623 438.101 266.557C439.019 265.123 439.756 263.58 440.295 261.965C441.83 257.645 442.804 253.146 443.195 248.578C443.437 247.355 443.223 246.087 442.595 245.01C441.737 243.907 440.232 243.543 438.965 244.13C438.029 244.704 437.268 245.523 436.765 246.499C435.534 248.295 434.497 250.216 433.674 252.232C433.342 253.132 433.097 254.066 432.774 254.974C432.445 255.87 432.065 256.747 431.637 257.6C431.575 258.048 431.521 258.5 431.479 258.948C431.097 263.211 431.686 267.476 431.717 271.757Z" fill="black"/>
<path d="M442.58 244.208C443.207 245.283 443.422 246.549 443.186 247.771C442.796 252.339 441.821 256.838 440.286 261.158C439.751 262.787 439.014 264.343 438.091 265.788C437.361 266.853 436.506 267.826 435.544 268.688C434.218 270.09 432.426 270.962 430.504 271.14C429.428 271.089 428.368 270.858 427.368 270.456L411.791 265.156C411.633 264.268 412.26 263.231 412.554 262.377L413.384 259.917C413.542 259.21 413.941 258.579 414.512 258.133C415.13 257.764 416.112 258.27 416.623 258.68C417.134 259.09 417.523 259.63 418.033 260.049C419.057 260.77 420.237 261.239 421.476 261.418L424.976 262.202C426.244 262.549 427.553 262.723 428.867 262.72C429.842 259.742 431.696 257.12 432.746 254.166C433.07 253.266 433.314 252.328 433.646 251.424C434.469 249.408 435.505 247.486 436.737 245.691C437.24 244.715 438.001 243.896 438.937 243.322C440.209 242.729 441.723 243.097 442.58 244.208Z" fill="#2F2E41"/>
<path d="M440.003 232.369C439.948 231.888 439.798 231.423 439.563 231C439.313 230.565 438.809 230.343 438.318 230.452C437.588 230.68 437.343 231.809 436.58 231.846C436.066 231.871 435.696 231.346 435.535 230.859C435.448 230.347 435.229 229.867 434.9 229.465C434.633 229.265 434.326 229.123 434 229.05C432.229 228.49 430.4 227.457 429.81 225.694C429.67 225.337 429.636 224.947 429.71 224.57C429.98 223.454 431.369 223.118 432.427 222.716C433.485 222.314 434.501 221.625 435.538 221.102C436.559 220.509 437.754 220.288 438.919 220.476C439.498 220.658 440.067 220.87 440.624 221.111C442.341 221.711 444.445 221.43 445.776 222.671C446.359 223.286 446.785 224.032 447.021 224.845C447.95 227.425 448.539 230.487 447 232.752C446.05 234.152 445.129 235.752 443.3 235.917C441.182 236.094 440.339 234.169 440.003 232.369Z" fill="#2F2E41"/>
<g opacity="0.1">
<path d="M436.76 229.98C436.672 229.469 436.455 228.989 436.129 228.586C435.862 228.386 435.555 228.244 435.229 228.171C433.453 227.611 431.629 226.578 431.035 224.815C430.9 224.456 430.869 224.067 430.944 223.691C430.985 223.514 431.06 223.346 431.164 223.197C430.494 223.398 429.962 223.909 429.733 224.57C429.659 224.947 429.693 225.337 429.833 225.694C430.422 227.457 432.251 228.494 434.023 229.05C434.349 229.123 434.656 229.265 434.923 229.465C435.251 229.868 435.469 230.348 435.558 230.859C435.724 231.353 436.089 231.871 436.603 231.846C437.117 231.821 437.366 231.352 437.694 230.958C437.227 230.828 436.868 230.453 436.76 229.98Z" fill="black"/>
<path d="M444.525 235.024C442.393 235.224 441.551 233.278 441.206 231.49C441.161 231.011 441.02 230.545 440.791 230.121C440.54 229.687 440.036 229.465 439.546 229.573C439.168 229.757 438.85 230.045 438.629 230.403C439.015 230.44 439.362 230.655 439.567 230.984C439.802 231.407 439.952 231.872 440.007 232.353C440.343 234.141 441.185 236.086 443.326 235.887C444.172 235.794 444.953 235.388 445.516 234.75C445.204 234.896 444.869 234.989 444.525 235.024Z" fill="black"/>
</g>
<defs>
<linearGradient id="paint0_linear_6_328" x1="437.238" y1="354.771" x2="437.238" y2="218.541" gradientUnits="userSpaceOnUse">
<stop stop-color="#808080" stop-opacity="0.251"/>
<stop offset="0.54" stop-color="#808080" stop-opacity="0.122"/>
<stop offset="1" stop-color="#808080" stop-opacity="0.102"/>
</linearGradient>
</defs>
</svg>
